<mxfile host="app.diagrams.net" modified="2024-07-22T10:32:29.302Z" agent="Mozilla/5.0 (Windows NT 10.0; Win64; x64) AppleWebKit/537.36 (KHTML, like Gecko) Chrome/126.0.0.0 Safari/537.36" etag="ZAM6VehG5Zakaj90xoch" version="24.7.1" type="device">
  <diagram name="Page-1" id="SXaKHSN1lWxHRTjGYDsX">
    <mxGraphModel dx="1290" dy="557" grid="1" gridSize="10" guides="1" tooltips="1" connect="1" arrows="1" fold="1" page="1" pageScale="1" pageWidth="850" pageHeight="1100" math="0" shadow="0">
      <root>
        <mxCell id="0" />
        <mxCell id="1" parent="0" />
        <mxCell id="tJL5NM-C6tB4_xVKN4DA-7" style="edgeStyle=orthogonalEdgeStyle;rounded=0;orthogonalLoop=1;jettySize=auto;html=1;entryX=0;entryY=0.5;entryDx=0;entryDy=0;" parent="1" source="tJL5NM-C6tB4_xVKN4DA-1" target="tJL5NM-C6tB4_xVKN4DA-2" edge="1">
          <mxGeometry relative="1" as="geometry">
            <Array as="points">
              <mxPoint x="245" y="210" />
              <mxPoint x="245" y="130" />
            </Array>
          </mxGeometry>
        </mxCell>
        <mxCell id="tJL5NM-C6tB4_xVKN4DA-1" value="" style="whiteSpace=wrap;html=1;aspect=fixed;" parent="1" vertex="1">
          <mxGeometry x="120" y="190" width="80" height="80" as="geometry" />
        </mxCell>
        <mxCell id="tJL5NM-C6tB4_xVKN4DA-12" style="edgeStyle=orthogonalEdgeStyle;rounded=0;orthogonalLoop=1;jettySize=auto;html=1;" parent="1" source="tJL5NM-C6tB4_xVKN4DA-2" target="tJL5NM-C6tB4_xVKN4DA-4" edge="1">
          <mxGeometry relative="1" as="geometry" />
        </mxCell>
        <mxCell id="tJL5NM-C6tB4_xVKN4DA-2" value="Voice to text" style="rhombus;whiteSpace=wrap;html=1;" parent="1" vertex="1">
          <mxGeometry x="290" y="90" width="80" height="80" as="geometry" />
        </mxCell>
        <mxCell id="tJL5NM-C6tB4_xVKN4DA-3" value="&lt;font style=&quot;font-size: 18px;&quot;&gt;User&lt;/font&gt;" style="shape=umlActor;verticalLabelPosition=bottom;verticalAlign=top;html=1;outlineConnect=0;" parent="1" vertex="1">
          <mxGeometry x="145" y="200" width="30" height="60" as="geometry" />
        </mxCell>
        <mxCell id="tJL5NM-C6tB4_xVKN4DA-13" style="edgeStyle=orthogonalEdgeStyle;rounded=0;orthogonalLoop=1;jettySize=auto;html=1;" parent="1" source="tJL5NM-C6tB4_xVKN4DA-4" target="tJL5NM-C6tB4_xVKN4DA-6" edge="1">
          <mxGeometry relative="1" as="geometry" />
        </mxCell>
        <mxCell id="tJL5NM-C6tB4_xVKN4DA-4" value="LLM" style="rhombus;whiteSpace=wrap;html=1;" parent="1" vertex="1">
          <mxGeometry x="540" y="90" width="80" height="80" as="geometry" />
        </mxCell>
        <mxCell id="tJL5NM-C6tB4_xVKN4DA-15" style="edgeStyle=orthogonalEdgeStyle;rounded=0;orthogonalLoop=1;jettySize=auto;html=1;entryX=1;entryY=0.75;entryDx=0;entryDy=0;" parent="1" source="tJL5NM-C6tB4_xVKN4DA-5" target="tJL5NM-C6tB4_xVKN4DA-1" edge="1">
          <mxGeometry relative="1" as="geometry" />
        </mxCell>
        <mxCell id="tJL5NM-C6tB4_xVKN4DA-5" value="Text to voice" style="rhombus;whiteSpace=wrap;html=1;" parent="1" vertex="1">
          <mxGeometry x="290" y="320" width="80" height="80" as="geometry" />
        </mxCell>
        <mxCell id="tJL5NM-C6tB4_xVKN4DA-14" style="edgeStyle=orthogonalEdgeStyle;rounded=0;orthogonalLoop=1;jettySize=auto;html=1;entryX=1;entryY=0.5;entryDx=0;entryDy=0;" parent="1" source="tJL5NM-C6tB4_xVKN4DA-6" target="tJL5NM-C6tB4_xVKN4DA-5" edge="1">
          <mxGeometry relative="1" as="geometry" />
        </mxCell>
        <mxCell id="tJL5NM-C6tB4_xVKN4DA-6" value="LLM&lt;div&gt;response&lt;/div&gt;" style="rhombus;whiteSpace=wrap;html=1;" parent="1" vertex="1">
          <mxGeometry x="540" y="320" width="80" height="80" as="geometry" />
        </mxCell>
        <mxCell id="tJL5NM-C6tB4_xVKN4DA-8" value="Voice instruction" style="text;html=1;align=center;verticalAlign=middle;whiteSpace=wrap;rounded=0;" parent="1" vertex="1">
          <mxGeometry x="175" y="150" width="60" height="30" as="geometry" />
        </mxCell>
        <mxCell id="tJL5NM-C6tB4_xVKN4DA-10" value="Speech recognition" style="text;html=1;align=center;verticalAlign=middle;whiteSpace=wrap;rounded=0;" parent="1" vertex="1">
          <mxGeometry x="300" y="50" width="60" height="30" as="geometry" />
        </mxCell>
        <mxCell id="tJL5NM-C6tB4_xVKN4DA-11" value="groq" style="text;html=1;align=center;verticalAlign=middle;whiteSpace=wrap;rounded=0;" parent="1" vertex="1">
          <mxGeometry x="550" y="50" width="60" height="30" as="geometry" />
        </mxCell>
        <mxCell id="tJL5NM-C6tB4_xVKN4DA-16" value="Play audio&amp;nbsp;" style="text;html=1;align=center;verticalAlign=middle;whiteSpace=wrap;rounded=0;" parent="1" vertex="1">
          <mxGeometry x="160" y="310" width="60" height="30" as="geometry" />
        </mxCell>
        <mxCell id="tJL5NM-C6tB4_xVKN4DA-17" value="Text to speech" style="text;html=1;align=center;verticalAlign=middle;whiteSpace=wrap;rounded=0;" parent="1" vertex="1">
          <mxGeometry x="300" y="420" width="60" height="30" as="geometry" />
        </mxCell>
        <mxCell id="WMmJRBIvkIGNVEh-zgJP-2" value="" style="shape=image;verticalLabelPosition=bottom;labelBackgroundColor=default;verticalAlign=top;aspect=fixed;imageAspect=0;image=https://miro.medium.com/v2/resize:fit:611/1*O_SGXTlWn_EB767r4UOm5g.png;" vertex="1" parent="1">
          <mxGeometry x="285.79" y="180" width="74.21" height="30" as="geometry" />
        </mxCell>
        <mxCell id="WMmJRBIvkIGNVEh-zgJP-5" value="" style="shape=image;verticalLabelPosition=bottom;labelBackgroundColor=default;verticalAlign=top;aspect=fixed;imageAspect=0;image=data:image/jpeg,/9j/2wCEAAMCAgMCAgMDAwMEAwMEBQgFBQQEBQoHBwYIDAoMDAsKCwsNDhIQDQ4RDgsLEBYQERMUFRUVDA8XGBYUGBIUFRQBAwQEBQQFCQUFCRQNCw0UFBQUFBQUFBQUFBQUFBQUFBQUFBQUFBQUFBQUFBQUFBQUFBQUFBQUFBQUFBQUFBQUFP/AABEIAXoCvAMBIgACEQEDEQH/xAGiAAABBQEBAQEBAQAAAAAAAAAAAQIDBAUGBwgJCgsQAAIBAwMCBAMFBQQEAAABfQECAwAEEQUSITFBBhNRYQcicRQygZGhCCNCscEVUtHwJDNicoIJChYXGBkaJSYnKCkqNDU2Nzg5OkNERUZHSElKU1RVVldYWVpjZGVmZ2hpanN0dXZ3eHl6g4SFhoeIiYqSk5SVlpeYmZqio6Slpqeoqaqys7S1tre4ubrCw8TFxsfIycrS09TV1tfY2drh4uPk5ebn6Onq8fLz9PX29/j5+gEAAwEBAQEBAQEBAQAAAAAAAAECAwQFBgcICQoLEQACAQIEBAMEBwUEBAABAncAAQIDEQQFITEGEkFRB2FxEyIygQgUQpGhscEJIzNS8BVictEKFiQ04SXxFxgZGiYnKCkqNTY3ODk6Q0RFRkdISUpTVFVWV1hZWmNkZWZnaGlqc3R1dnd4eXqCg4SFhoeIiYqSk5SVlpeYmZqio6Slpqeoqaqys7S1tre4ubrCw8TFxsfIycrS09TV1tfY2dri4+Tl5ufo6ery8/T19vf4+fr/2gAMAwEAAhEDEQA/APu2iiioICiiigAooooAKKKKACiiigAooooAKKKKA3HNTacye1N+ahALv96O1GDu/wCBf+PdKP8AVRyTSfJGo+ad9qrj+8SatRlJ2WvkDaSblou7Hn6VDx+VeZeM/wBp34Z+A2ePUPFVpcXQ+9baduuZcj6V4r4p/wCChujwK6+G/B15qH92bUbpbdf++BmvWw2TY7E606bt56I8urmWFofFNX+8+uN4p8cZf7qN/wB8s38q/PDxF+3n8UNXZl09dF0KP/p3s1mf/vp6861r9pP4q+INzX3j/Wvm/htZFt1/KOvfpcJ42a/eNRfzPMnxFh4aRuz9WZLWZPvIyKo/jVl/nVKe6tbdv3l5aRf9dbiJf5sK/ILUPGXiHVmb7d4g1W9/6+L6VvzBasxppJf9ZJI/+/IzfzY16UeDZ2vKsvubOCfEqasqf3s/Ydtd0lP+Yvpyr/1/RL/N6cutaY//ADFtOf8A3byIt/6FX44eXH/zzjo8tf4UWtnwcv8An9+Bn/rI/wDn0vvP2ahkS6H7mWCbj+GZT+WGqY2s38MUn/fLNX4zR3U9uytHPPF/1ymZf5Vt2HxA8VaRtax8Va1Zf9cNQlX/ANmrGXB1TpVT9TaPEsdnBr53P18kRl+98nNJ+Fflrov7Unxa0FkNv491W4Rf4b/ZcK3/AH2pr0Lw7+358StOZV1a00PXV/2rVrdv++kryqvCeOp6xafpodcOIMNJ2aaP0ITjrR/B7V8meFv+Chvhy9KR+IvCOo6Z/en06ZblP++Thq9o8F/tJfDTx5JDHpfiqzS8kA22l/utpf8Avl68LEZTjsM/3lN276tfgevRzDDVn7k1c9L/AJUHdSsp8tJNv7ph8rfeVl9mHytSBt/y+leM1JPVWPS3V1qP20zFPxTM07NAJRRRQAUUUUAFFFFABRRRQAUUUUAFFFFABRRRQAUUUUAFFFFABRRRQAUUUUAFFFFABRRRQAUUUUAFFFFABRRRQAUUUUAFFFFABRRRQAUUUUAFFFFABRRRQAUUUUAFFFFABRRRQAUUUUAFFFFABRRRQAUUUUAFFFFABRRRQAUUUUAOAzSDdSD761ieMvG2gfD7Q5NY8SarBpWnrnbPL8zSEfwoB8zE1pCnOpJQpptvtqTOcaceaTSXc3Nh+WuV8d/FPwl8MbFbzxVr9rpPB2Wztunlx/DHEMsxNfIPxe/b01fWWm034e2j+HNP/wCgxexrLey/7iHKRV8s6pql7rOoS32oXk+oX0zFpLm6kaWSQ+7FjX3OXcK18Rapinyp9Otj5PG5/Ck3Ggrvv0+R9e/Eb/goTLuls/AXh5IV/wCgprf80txXzL48+LPjH4nXHmeJPEuoamn8Ns0nlWyj0ES4WuQ2/NTa/RMHlGDwKXsqauur1Z8dXzHEYn4pu3boC/KoVdq/7lJ5WadRXsfeeY5N6jqRqSiqICiiigAooooAKKKKACm7jTqKLJu7GhBuaiTDJtkVXX/bpaShpvR7fgWpNO6O28BfGDxp8MpA3hnxRqGnxf8APs0nnW3/AH6fK19MfDn/AIKDFmSz8feHF/7C+g/+hPbmvjJlVz96lXdXg4vJsFjU/aQV+ltGj08NmWJwz0m2ux+ungX4k+GPidp/2zwvrtprcWPmit22yw/7LxHDKR33V03mDHSvxw0TWb/w/qUWpaZqNzpmoQkMlzZyNE6ke4YV9ZfB39vS/sDHpvxKtzqdp/0H9OhVbiL3mhGFf/eWvz3MuFq+GvUw75l1XVH2mCz6lW/d1/dffofbvH1oJrM8N+ItJ8W6HbaxoepQazplwN0V3atvVj/dPRlI/utWiGr4dxak4yTTXRn1MXFxTTun16C0UUVBV0FFFFAgooooAKKKKACiiigAooooAKKKKACiiigAooooAKKKKACiiigAooooAKKKKACiiigAooooAKKKKACiiigAooooAKKKKACiiigAooooAKKKKACiiigAooooAKKKKACiiigAooooAKKKKACiiigAopGoVaA8x1Jtb+H/AOK60jFEjeSR1hijBaSVmULGoXLEsflUDvXxP+0j+2ZJqSXXhn4d3pt9O5jvfEEX3p/7wt/7o9Xr1Muy6tmNX2dFbbt7JHBjMdSwcOapu+nW5638fv2utC+Erz6LootvEvi5cK0PmbrWyY95XHcf3K+BfHXxA8Q/EvXH1bxNq0uq3zfdZvlSJeoWNB8qgVz7D7249z/tNk8li38RNIvymv2XKsmoZZH3UnPq9/uPzbHZnWxkrt2XboCsaTZ7UUV9EtFY8O4UUUUCCiiigAooooAKKKKACiiigAooooAKKKKACiiigAooooATc1OAdPutSUqja1D1Vi72Oy+F/wAXPE/wd15tU8L6i1uzf6+xn+a3uV9HSv0R+A/7SHhz456f5MG3R/E8KbrvRJ2Vm/66wNxvSvy79du6rul6pd6JqVrqWm3UtjqFq4mgu4GZXhcNkEMK+UzXIqGYxbh7k+j/AEZ9Bl+a1cHJRvePY/Y7DfjQGUV85/sxftXW3xaW38M+KGSy8aqD5M/ypBqir/En92X1Svor7n5n9K/G8VhKmDqujVVmn8n6M/ScPiKeKpqpTd118vIWiiiuM6QooooAKKKKACiiigAooooAKKKKACiiigAooooAKKKKACiiigAooooAKKKKACiiigAooooAKKKKACiiigAooooAKKKKACiiigAooooAKKKKACiiigAooooAKKKKACiiigAooooAKKKKAClpKKA30FxUdxNBa28stxLHbQQxmSaeVlCxoOWYsflUDvUnuvyf5xu5+Xivg39r79pw+Nbq58EeFLv/AIpqF9upXyt82oyL/wAsx/diFexlmW1czrKnT0S3fRI83H4+ngqd3rLovMzP2pP2rLj4mXVx4V8Lztb+Do3K3NzF8r6oR/6DFXzSqjP+eopMfw0vy1+54LB0cDSVKjGyX3vu2fleJxVTFVHUqNtsKKE7UV6BwsKKKKBBRRRQAUUUUAFFFFABRRVmPT7u4XdHazuv95I2agCtRVz+x9Q/58rn/v21H9j6h/z5XP8A37anYqxToq5/Y+of8+Vz/wB+2o/sfUP+fK5/79tRYLFOirn9j6h/z5XP/ftqP7H1D/nyuf8Av21FgsU6Kuf2PqH/AD5XP/ftqP7H1D/nyuf+/bUWCxToq5/Y+of8+Vz/AN+2o/sfUP8Anyuf+/bUWCxToq5/Y+of8+Vz/wB+2o/sfUP+fK5/79tRYLFOl5q3/Y+of8+Vz/37aj+yb/8A58rn/vy1GoWZBbzSW88U0Mr280LCSOeJmV42DZVgw5UjtX6Hfso/tLr8XbFfDPiSVIfGtnD8sn/QWjXlpE/vSjutfnfJBJHIyyRtE3919yt+RqxpWrXug6tZappt1JZalYyLNbXMTMGhkVsqRXzeb5VDM6Li1aaTafX0Pby3MJYGrfeL3R+yAFHSvMf2ePjfa/HXwHHq3y2+vWZFvqtkn/LOXtIi/wBxq9O+avw6tSqUKkqVVWaP1OlVjXpqrF3T2+QlFFFYGoUUUUAFFFFABRRRQAUUUUALWW/izQIJmjm13TElUlWV7yJWVh94FS25SKs6tJJBo9/JCreetvI0f8TZC5WvycjUSxo0iq7MoZmf5mYnliW/iJrroUFWvra1jGpU9nbTc/Vb/hMvD3/QwaV/4HRf/FUf8Jl4e/6GDSv/AAOi/wDiq/KzyU/uLR5Kf3Frq+pL+Yx+sPsfqn/wmXh7/oYNK/8AA6L/AOKo/wCEy8Pf9DBpX/gdF/8AFV+Vnkp/cWjyU/uLR9SX8wfWH2P1XTxZoVxKI49d0x5WIVVS8iZmJ4UBQ25ia1PXvX5JNGif3U/3PlbI+6Q38JFfpT8EfFV/4r8LxzXztLPxueuWvQVG2t7m1Op7S+mx2t34k0fTZ2trzV9PtJ1HzRXF0iSKpXKsVLBlz2qv/wAJl4d/6GDSv/A6L/4qvzh+OUkl18Z/G8lx80v9sXC7n9FfC/ktcT5Kf3Frpjg00m3v5GLrtSasfqn/AMJl4e/6GDSv/A6L/wCKo/4TLw9/0MGlf+B0X/xVflZ5Kf3Fo8lP7i0/qS/mD6w+x+qf/CZeHv8AoYNK/wDA6L/4qj/hMvD3/QwaV/4HRf8AxVflZ5Kf3Fo8lP7i0fUl/MH1h9j9akkW4jVo3V4mA2sm1lZTyrBh94GndjXzn+yL4qv9S8I2el3UrPBawlYt/wDCgr6D1LULbSNOudQvJ0t7O1haaed/lWNFXLMfpXmyjaTXZ2OtO6TLHmVyOvfGHwL4XlMOreL9GtZ1Y7oPtiPKrDsUjYtXxX8bv2mNf+KGoT2ek3M+ieFfuxWkXySzqP45WH6JXi64WvQp4NtXk7ehzSrpOyR+k9r+0T8M7yRY4/GulJ/18SND/wChqK7jS9a07X7ZbrS9QtNTg/hnsrhZk/BlYrX5QbhWn4f8Sar4S1Bb7Q9SudKvFPyy2sjL0q3glb3WQq7vqj9WqReWWvMPgX8ULj4k+E7O4vlX+0PJDT7Nqqz16aBmvLacG0ztTuriUUUVIBRRRQAUUUUAFFFFABRRRQAUUUUAFFFFABRRRQAUUUUAFFFFAC9qN59aK4L42/FSz+DPw8v/ABFcKst9gQ6fbf8APe5bgVrRoVMTUjSpbt29PMxrVY0YurLZI8X/AGzv2gz4N0qTwH4futmvX0e7Up0b5rK2b/ln/wBdGr4I6p+VaGua1f8AiXWr3U9SuHvdTvpmuLmeX+KRuSaocg7WWv3vKstjltH2S+K2r7s/J8fjZY2q6j26Lsgooor2zyWFFFFAgooooAKKKKACiiigAp1MHNdN8OtNj1TxlYRybXijJmZf91cqKaV3YtK7seg+BfhjbaXbxXmrQLcagwDLA/zRwg8gEHv61365RV2ts/3fl/JRRRXWkkrI6krC+Yf7zf8AfTUu9v7zf99NTaKZYqyP/fajzX/vNSUVauJsf5knq1G8/wB9qZRVpMkf5jf32o8xv77UyiiwDvOb++1I0j/32pKKVmA7zm/vtRvb+83/AH01NoqXcpMdvb+83/fTUnmH+83/AH01JRUDKGsaHYa9btDfWqXC/wB5tqsp9Q33lNeHeOfB0vhDUlXd5tjNloJPYdVPuK+gK5P4pWMd74LvWZfmtSs0f+8Gw35q1ZzjdXW5nOKtfqcP8Dfi9efBH4gWXia1VrizYfZ9SslbC3Nq33vxH3lr9TtH1ay1vSbLVNNuEutPvIEuIJ0bcskTLlT9fWvxyBG4N/BkfpX2z+wR8YDe2mo/DjUJ/mtQb7Rmb+KLrND+H3q/MOKcr9pD67SWsd13T6n1eQ45Rl9WqN2e3k10PsDOaI+uKP4qfX5W0raH3z3siOiiikAUUUUAFFFFABRRRQA+vnTxd+yD4Y1LVHuNLs10+KQlmjRm25NfRPTvQ496uMpLZtCcU90fLX/DGFh/e/8AHmr5c+InhtPBvjzXtDX7un3bQ/8AARX6kBPavzW/aD/5Lh41/wCwpLXo4ScnNqTb0OSvFRiml1OQ8O2Eeo65ZWs3zxSSBWr6g0H9kaw1zS4LxW2eYB8u6vmbwb/yNWl/9dhX6W/Dv/kUdP8A9wUYuclJKLa0HQinFtq+p8/x/sZWSMGr3j4d+CU8EaP9j8ze/wDerr803ivOlKT3bZ1JJbKx4p8VP2ZvDnj/AFy41qOzW31O6IaeRGZVlYfxFRXB/wDDGWn+v/jxr6m3+9FWqtRKybFyRetkfm58ePhrF8KvGlto8LfJNYrdf99Ow7/7teddvxFfQX7b3Hxe07/sDQ/+jZq+fK9yk26ab3sebNJTaR9OeA/2Y9O8a6St8vyf7O5q6Zf2MbD+9/481eq/s+f8ibHz3Nepbh6/pXie1n/M/vZ6XJHsvuPN/hF8JY/h1Gyq6uuAqr9K4n9tbxJNo3wlt9PhbZ/bGox283/XNVaRv/QUr349BXzj+3Lo09/8NdG1CFN8Vjqg83/ZSRGFOhZ1VfuTUuou3Y+JK9r+BPwhj8deVJJFHM0gLMzqrKoDYVQprxSvef2ZPjZpPw71I6f4gdrexkysV7tZljY8sHr1sSpuFo/O3Y4qLipe+fRK/sweGprPybiCKV/+uK15f8QP2MU8t7rw3eNby/wwP8yNX1dpurWOuWcF5Y3MV3ZzD93PAyujD2IyrVb2jvXjqpOm9G0d7jGa1R4l+zj4H1DwVpctrfRMjRgL+Ve19aaqhf4ad3NZNtu7K2VkJRRRSAKKKKACiiigAooooAKKKKACiiigAooooAKKKKACiiigBaBzQKCOaN9AFVSzKv8AeYf99Htu/hBr82/2vvjF/wALR+KFxp+nzs3hzw6TZ2n92W4HE01fWf7XHxok+Evw2az0u4WLxHryyWtn/eijHE0tfmuPupt/x+pPue9fpvCmWaPG1V5R+T1Z8Ln+Pu/q8Xtv6jKKKK/Tlax8IFFFFABRRRQAUUUUAFFFFABzupwNM5Wtnwz4V1bxlrlro+i2Eup6ncE+XBF7LlmJ6KB3qJSjTTcmklrroku7ZtGLqPljq2ZHG3pmux+EvPjO2OMfu5P/AEGujX9l/wCJn/QsSf8AgRF/8VWz4T+CPjfwNrCatrWhSWWnwoVaZ5Im+ZuFG0Ma46WYYSpUSjUTba2km230SOz6liI+86bSXk7WO3ooor3CQoooq0hMKKms7K51GYx21vPdSqCzRwRs7KP4iVCllAplNTjzcl9SWpKNwooqa6srmz8r7Rbz2/mIGTzYym4HoRlRuFac0eZJvVitJ6kNFFFXykXCm7au2+ialeWpurfTby4tlBZpord2TA7lgpWqSsKxjUhNtQd7b+Ro1JWuhKKnt7Oe/mWG1t5bidvuxRKzt+ChS1LfafdaZN5N9a3NlPj5Y7qFomZfXaVDVm6lPn9nza9upXLK17aFeiiimxhXO/EX/kR9a/65j/0Na6Kud+Iv/Ij61/1zH/oa1D2ZPRnz2Rhq2vCHi7UPAPi7SPE2luy32k3SXUf8PmBT80Z9ivWsXGadHmvMq041YOnNXT0ZhTqSpyUo7o/Yjw34ksfGvh3S9e0t1fT9Ut0uoP8AdZcspIrSr5Y/YB+IB1rwDq/g+4l/f6HcG4tP+vaX/Bq+pyc1/PePwzwmKnRask9PTofsODrrFUYVV2s/USiiivPO0KKKKACiiigAooooAKKKKAJB0Nfmn+0B/wAlv8b/APYUkr9LB0Nfmp+0D/yXDxv/ANhSSvSwfxv0ObEfCvU5bwb/AMjTpf8A12FfpZ8O/wDkUNN/65ivzT8G/wDI06X/ANdhX6W/Dv8A5FCx/wBwUY34o+gYf4H6nR0UUV5p0hRRRQB8N/tw/wDJXNN/7A8P/o2avnuvoX9t7/krWn/9geH/ANHTV89V9BR/hL0POn8Z+i/7Pv8AyJaf7xr1GvLv2fv+RMj+teo18+eiLisjxh4VsPG/hnUtB1SNmsb6EwyfdVlzyCGKnaR2atfrQaabTug30Z+Y3xO+Fut/CfxE+l6tEzwbi1pfIrLFOn+PqtcfX6l+LvBeleN9Jl0/VrOK7gYfdlVWr5T+JH7GtzYNPeeF7j9xkstpcN936NXr0sXFq1TR/gcU6DTvHU8D8E/ETxN8O777V4d1e50zkNJArM0U3+/EcrX1f8Jf2ytO8RzQaX4wt00W+bCrqETf6LMT6/xJXyD4i8L6r4S1A2OrWEunz8/LL91lHcMMqwrLredKnWV/xRnGcqbP1mhuBcKrRsrrj5dlPbua+UP2Q/jFc3tq/hfVLhrj7Lj7NK//ADyPCr+FfV5O+vEnB05NPod8ZKaTQlFFFZlBRRRQAUUUUAFFFFABRRRQAUUUUAFFFFABRRRQAUUUUAKmOKWJdzBf4v73+z/Ex9hSZry39pvx+fhp8EfE2qW77NRuIRp9l/12mbbuH0Xe1dWFoPE1Y0UtZNL5HPXrKhSlUfQ+Dv2mvik3xW+L2r6nFLv0ixc6fpq/w+RGceb9Wb5jXk7A4pGX93Ht4XFObg1/Q2GoRwtGFKKskvyR+O16sq1R1G7tsSiiius5AooooAKKKKACiiigBeQ3FH8VN6it7wf4P1jx54isNB0GwfUNVvH2xQRf+hFjwoHdqznJU4uUmklu3oku7ZtCMqklGKu2N8IeENY8c+IrDRNDsZdQ1a+fy4oIvzJP90Du1fpp8Bf2ctH+A3gu8O6LU/FV5an+0NU2/wCz80MX92KrH7Ov7Oej/AXw2wG3UPFF4g/tDVP18uL+7GK9Y1HnTbv/AK4v/wCg1+P57nssdJ0KDaprr1k11Z+kZVlawkVVqq83+XZHkY6LXGfFz/kRbz/rpH/6FXZnrXGfFz/kRbz/AK6R/wDoVeJk/wDyMKPqj2cd/u1T0Z4JRRRX9GLc/KAqxY2Nzql9b2dnC1xd3EgjigX70js2FA+tV69+/Y48Epr3j28164jD2+jwhYt3/PeT/Ba4Mzxqy/B1MU9eVaebeiOjC4d4qtCiur+5btnrmn6bo37Knwkmvpo4LrXbhB5sg63dyeiD0jFfFt1dSXl1cXEgXzZpGkk2/KuWbLYH8I9Fr2f9rnxrJr3xQOjCbFpo0SKkfrLIMu35AV4va2ct9dQWtuv7+4kWOP8A3mbArw+GsI6GGlj8S71KvvNvot0ejmtVTrLDUlaENFbqz3r9lf4MReMtUfxPrNvv0mxkC2sEi5S4nH8X0Wsj9qD4oW/j/wAaxadpyo2m6N5kQuO88p4f8Btr6C+JlwnwM/Z8ks9KPlzwWsdhBKvaR+DJ/OvhePG35a8/IVLOswq5tWfuwfLBdtN7HRmNsDhoYGK1aUpPu76IWvRf2f8AwVY+Pfinpun6mnm2ESSXUsP8MuzsfYtXnVbXgvxdqHgPxRYa9pjD7XaMxCtyjqeHQ+xr7rMqNavg6tPDu03FpdNbHgYacKdaE6ivFNNryT1P0ttbOCyt0treJLeBAFWJFAVQOwAr5M/bA+Fen6Atp4v0y2S1+0TfZ76GJVVGc/dk+td54P8A2vdC8VaxpWky6LqNneX0yW+4YkRHb3HUVJ+2bfJB8K4LZz81xqEO1f8Ad5NfhOU0cdlebUYVIuEpNKz6p6M/RcdUw2MwM5QaaSvfs1qjpv2efh3pngv4daTcW8UT6lqNrHc3V5tG6VmGQM+grqPiL8O9H+Jvh250fVYEbep8m42gvA/aRK+Xfg5+1R/wgfhmDQdd06fUra0Hl2tzasu9Yx0Rw1fUXwz+Imn/ABS8LRa9YQT29vJI0ZiuFw6lfpXPmuCzLL8VLE17/FdS79VY0wOIwmKoRo07bar8GfnDq2my6Jq17p9xt8+znkt5f7u5GZWqtXQ/EO9j1H4g+J7yFt8c2p3MifQytXPV+84WcqmGpzmrSaTfq1qfm9RJTlBbJtL7wrnfiL/yI+tf9cx/6GtdFXO/EX/kR9a/65j/ANDWtXszPoz58pf8KSiuJnH9o9p/Y98aDwR8fPDzTSsljrHmaXP83/PVf3X5NX6Y7Duz/dJ/3lboy/hX42WOpS6RdWd9A2yexnjuI/qjKy/nX7FaXqkevaTp+rQ/6vULSG8X/dlTd/6E1fknF9DkrwrJbrX5M/ROHa16M6T6P8CzRRRXwB9cgooooAKKKKACiiigAooooAU9BX5r/tC/8lw8cf8AYUkr9KD0Ffmx+0L/AMlw8a/9hJq9DBfG/T9TmxHwr1OV8G/8jTpf/XYV+lvw7/5FCx/3BX5peDf+Rp0v/rsK/S34d/8AIoWP+4KrG/FH0DD/AAP1OjooorzTpCiiigD4d/bg/wCSuaX/ANgWL/0bNXzzX0N+3B/yVvTf+wPF/wCjZq+ea+go/wAJeh50/jP0Y/Z9/wCRLT6mvUK8v/Z9/wCRLT6mvUK+fPRF6GnkYpoFfJn7aPjrxB4U8ZeEY9H1e80xI7SS8X7LMybpDLjn+9jbWlKm6slFETkkrs+sk7UMoHavjrwD+3Hf2cEdv4w0hdQ2/L9t03bE7fWI/LXrVv8AtifC+4hEkmqahbt/FFLpszN/30qstaSw9WLs036aiVWDV7nT/Gn4Z6L488A6zHfW0STw2ss0FztXdBIq5VhX5sxtvWvqL45/tf23i7w3e+HfBtnd29tfRmG71K9VUdojwyxoPWvl6vTwtOUIvm0vsjjrSTasej/AO6ltfiBbyRt2H/fJav0csWMtlE3sK+Cv2a/CM+o+IILrZ/rJE8v/AHFr75tl8qBF/ugV5+KknVdvQ66Sairi0UUVyGoUUUUAFFFFABRRRQAUUUUAFFFFABRRRQAUUUUAFFFFADs8V8Yf8FDvFjPL4P8AC6H90ol1KX/0VFX2ccvt7V+a/wC2hrx1v9obxBGrb4tNgtrGNv8AdiVm/wDHpK+x4WoqrjuZ/ZTf36I+az+s6eFst27fceGUUUV+1Pc/MGFFFFAgooooAKKKKAHc7qT+KjnbWx4U8K6p418Rafoei2bXuq30nlwQL8v1JY4Cgd2rOUowi22kkrtvRJLdtm0YyqS5Vq2O8HeD9X8e+JLDQ9Bsn1DVrx9sUEX/AI8T6AV+n/7O/wCzto/wF8OMqeVqHiW8Qf2hqm3058uP+7GKg/Zz+Afh/wCAvhnAubbUPFF4g/tDVNy/9+4vSMV66by3/wCe0X/fxa/IM9zyWOk6FBtU09Xs5NdWfpWVZUsJFVaqvN/l2RaqDUP+Qbef9cW/9Bpftlv/AM94v++lqDULy3fTbz9+n+pb+JfmO2vjT6U8krjfi5/yIt5/10j/APQq7KuN+Ln/ACIt5/10j/8AQq9bKP8AkYUfVHDjv92qejPBKKKK/o5H5QFfXX7DzR/8I34pVf8AWfbo/wAjFXyLXoXwQ+Llx8IvFbXzRSXWl3KiK9tovvED7rjOORXz3EGCq4/Lp0qOstGl3s9j08sxEMPioTntqn5XVrn3drfw+8M+JZ5J9U0DTdQmkXa8lzao7sPqa+S/iF8MNM+F3x78JrZDZol/ewXMUDfdgYPgr9BXvrftTfDP+zvtn/CR/Nt/1H2Sbzv++NtfJPxq+K8/xW8a/wBpwxyWVjaqIbGN/vqByZD/AHSWr874dy/M3iJ05RlCm4tSumlqrKyZ9Nm2Iwfsoyi1Kd01ZpvR3d2j9BtS0mz1yyktL+0ivbR8bobiMOjY/wBk14f8ffgJ4b1HwPqWraPpNrpGrWEJulls4ViEqpyUcDH8NVPhd+1n4b1DRLeDxbeNpOswoFlmeFzBMw/iVlUqK5747ftN6FrHhO98P+E7mTUZ71DDPfeS6RRRn7wDOOWry8BlmbYTHwp04Si1Lez5d92+x3YrGYGvhZSnJO620v6Hyz/DQ1HFNZjX9FdD8t1PdP2S/hvJ4m8bN4iuYj/ZujcozdHuG6fl94079rjx+nijxxb6FZy77HRkJlZe879fyWuuvvj/AOEPhv8ACfT9C8Az/atXa3CruhK/Z5G+/JNlQN3WvlySR5WdpHaWViWdm+ZmJbLMW/iJ7tX5zluExGZZrPNcXBwjHSCas7bXaZ9Riq1LC4OODoyUm9ZNO6v0SaJdN0251i/tbGxia4u7qVYYoV/idm4H+LV9veK72D9nT4CR2VtLGdQht/strxjzrp8kv/6Gxr57/Zo8V+CvBPiLVNa8V3n2S7t4Qtgzwu64P3yqqpO+ud+Nnxcu/i74oN4Ve30i0BSxtG7A/ec4/jNTmuGxOc5pDCODVCk05N6KTfRDwdWlgcLKsmnUnolfVLq2eec/3mf/AH/738TH60UUV9zayPngrnfiL/yI+tf9cx/6GtdFXO/EX/kR9a/65j/0NayezH0Z8+U6m0VxnCDY+ZfY1+rf7PepHVfgF8ObiRt7f2DbRs3+0i7P/Za/KVetfqR+yod/7Nnw8/7Bx/SWSvznjFL6vTfW59rw237aa8j1UdDUdO7H8KbX5Sj9Ae4UUUUwCiiigAooooAKKKKAHrxmvzu/aV8I65pvxi8UXk2j3iWN9dmaC5WFmikQ+jiv0S/UVka54bsPEMCx3kCy10UaroybSuZzgqisz8zfBek3r+JNOm+xz+UsgZmaNlVR/vGv0j+HqlfCFgrf88xVCH4TeHopFb7Ctddb20dlDHDCqqij7tFar7WSbVghBU1ZMfRRRXOaBRRRQB8aftt+E9ZvfHmk6xb6Xd3Glf2atu1zbwtLGsglkLKa+brfR7+6kWOOyuX3Ef8ALFl/Niu1a/VLVNLttXtWt7pFmib+Fq5c/CPw55ufsS13wxbhFRS2OeVFOV2zD+AKlfBqfU16dVPS9HttGtVt7WJYov7tXK4DoFrxD9p34Gy/FrS7DUNLuFt9a0sMsay/Mk8TcshYfdr2/rRjFXCTjJSW6FKKmrM/LHxB4J1/wvcSR6ppNzabf4trNH/30MrWHuFfqnrHhHTtZVlvLVH/ANquNvfgL4avJGk+y7K9BY121RzPDroz85rWxur9ttvby3HP8Cs35sF2rXf+Cfg3qviG+i+0W7bWI/cJ/F9WFfb9j8D/AA5asu6BnrsNJ8M6ZoaqtrbolZzxcpqyVvzKjQind6nDfCH4Xx+CrHzpkX7SwH3F2rGBXplFFcB0BRRRQAUUUUAFFFFABRRRQAUUUUAFFFFABRRRQAUUUUASio++aOvSimtNWAIf3kf93I/Wvyg+O1+dT+M/je6b592rTr/3y2K/WGMYnQZ7ivyC+IEzS+PvFDf3tVuv1mY1+i8GwtVqz8j4ziZtQprzZz9FFFfqp+ehRRRQAUUUUAFFFFABXtH7Hih/2g/Dyt9zy7n/ANEtXi9e0/sdf8nB+G/+udz/AOiGry80/wByrekj0cv/AN6peq/M+/8AVtH+xN5ka/uG/wC+o2/un2rN2iu2ZQyt9K5vVtLNlukjVvIz/wB+/Y+1fz8fshLD4R1G4hSRY4trAMv7xVbaVytSf8IXqn/POL/v4tadj40gtbOCFrWV/LQLu3L2XG6pf+E8t/8An0l/76WgrQxv+EJ1Qn7sX/fwVw3xs8LX+m/Du/uplTylmi+43q2K9R/4WBbg/wDHnN/31Xn3x48XQ6v8M9StVtpE3SQ7WZvRs162U/8AIwof4onBjrfVavofLtFFFf0ctz8nCiiitEyB9FFFaIlodRTaXdWqZAtFJuo3UXAWm0rNSUmwCh+9FMfvWbLQUUUVizRBXO/EX/kR9a/65j/0Na6Kud+Iv/Ij61/1zH/oa1k9mLoz58oopVWuM4RD/FX6mfsx2v2X9nL4dK38WkJJ/wB9Oxr8s5G2QvJ7Gv1t+EOlnQ/hD4D09vvW+gWK7frCpr844wmvZUo+bf3H2/DUW6lR+VjrRl+KVPu0n3+actflaVl9x991fzG0UUUAFFFFABRRRQAUUUUAFFFFABRRRQAUUUUAFFFFABRRRQAUUUUAFFFFABRRRQAUUUUAFFFFABRRRQAUUUUAFFFFABRRRQAUUUUAFFFFABRRRQAUUUUAKTmlU5FJSUPUBYf9fGf4MivyN+KVqbL4neL7dvvR6vd/+jWr9c1PzR49RX5aftQaX/Ynx+8c2v8AevvtC/SRFev0Pg6pavUp+X5O58bxLFunTa2X6nlz96KKK/Vlqrn54FFFFUAUUUUAFFFFABXtP7HX/Jwfhv8A653P/ohq8Wr2n9jr/k4Pw3/1zuf/AEQ1eXmn+5VvSR6OX/71S9V+Z+klIyqy/MqvxS0V/Px+yHNappf2Jmkjb9xn/v2390+1Zu4V9E6PHpjaNaiZLTLQjcH25985rn9b0Wx09jNALVrctgqQh8rPY1NyrHiRYZrjfi8w/wCEHvf+ukf/AKFX0QBYZ/5dP/HK82/aI+yf8Kn1Ly/s27zoPu7f79exlP8AyMKH+KJwY5f7NU9GfItFFFf0Yfk4UUUm5f71PmQC0+o9wo3CtVLzIsSUUzzBTsj1WqU/MXKLRSZHqtGR6rVc4rC0U1aX5/7tHMwSFplLtb+7RtNZtlCUUbXo2tWbKQVyfxR1COz8G3qt9+4KQx/7xZXb8lWt3WNcsNCt2mvrhLRf9r7zN/dCj5mNeHeOPGEvi3UFbb5VjDlYIvY/eY+5rGcklYicklbqc1S/w0lOrmvbVnGW9B0efxJrmm6TCN8t9eQ2qqvq74r9i/IjtRHZw/6i3jWGP/cRVRf/AEGvzl/Yp+H7eL/jfp2qSRN/ZnhuM6hO38PnbcQrX258brXxbL4LH/CH3klpqcN0JJWiZVdoQrblDFSuTX5LxPUjicdDDqaSSs29k276n6JkUJUcLKvyt3ey3aS6HoJxR1r4y/tz41/9BbWv++hXP6b8XPiTq959ls/FGpyz8/L5i9q8SGS+0i5KtFpbtN2V+56Ms39m0pUZJvZaXdux920da+NY/EHxrSRGbUtZcKR8rsvavrLwjqV7q/hyzutSi+z3kg/eRV5OLwscM1aopXv8Lva3c9PDYmWITbg42t8Wl79jXooorzztCiiigBcUU/vzXEfFf4q2Xwo0Wz1C8sLnUFuJzCsVuyr8wXLEsa2pUp1qip01dvZdzOpVhSg6lR2S3Z2nWgL7VzfgHx9p3xE0GHVNPWRFYDfBL96In7wOPlYiulBqJRcZNNWadmvNFRkpxUk7pq69GOJpuTtpsgfyz5ZVZGB27uVVtvysV/iAr491K6+OOjXj2txrGptKuNzW8yutduEwkMVe9RRt/M7Xv2OTE4mWHtaDle/wq9rdz7G+lGK+E9a+KvxQ8OX32PUvEuq2k7AMsbsvete18TfGW9hSa31nWZYmHysrLXrTyT2cYuVaKUtU22k15HmQzf2kmlRk2t1ZXT8z7TLe1LXj3wD8QeM7+zuLHxZHPcSxl2W5uvvMD/CWChWAr18ivn6sFSqON07Pdap+aPcpzdSKbTV0nZ7ryYlFFFYmguKKMcV518c/it/wqjwvBcW8SXGr30hhso5fmTcvLylRjgVvQo1MRUVKmrtvQxrVo4em6tR2SWp6R0oxivhzSrz4nfFC8e6t9b1WV2P/ACyuHhT8FRhXR6Tq3xb+FurWsl8+pahpnmL5sU7Ncpg+rFiy17E8spxTSrpzV7rVardJs8yGYTnZui1B7PR6PZtI+vKKq6Tef2jptvdMmzzIw236rnbVqvAPZCiiigAooooAKKKKACiiigAooooAKKKKAIr7ULXSrVri9uoLK2XG6e4kWJFycLlmYKuaLDUrXWLZbiyvIL22bO2e1kWVGw2GwysVbFeXftQf8kW1f/rva/8Ao9a4r9kK8mfS9Rt2dvIjJZYv7rGvT+pr6l9avre1une9zz/rL+t/VbaWve/na1j6LooorzD0AooooAKKKKACiiigB3JSvz5/b48Of2X8ZLHVtvy6xpcf/fyJmWv0Fr5h/b68GnWfhhpHiKFN0ui34jlb+7DNx/6FX1HDeJWHx8L7S0PAzug6uEk0tU/wPgM/c/4EKSiiv3K1vvZ+VvTQKKKKZIUUUUAFFFFABXtP7HX/ACcH4b/653P/AKIavFq9p/Y6/wCTg/Df/XO5/wDRDV5eaf7lW9JHo5f/AL1S9V+Z+klFFFfz8fshG1uPShrdG3cdq7mx+HtvfWFvOb6ZTMgYhAuBkZ4qf/hV1t/0EJ/++RRcqx41q+jfYt0kY/cZ/wC/f19q87+Ln/Ii3v8A10j/APQq+pm+GNswbdfz7cf3VryL49/CCe28B3jaO9zqDNNF+4+X5V3V6WV1IU8dRlJpJOOuySvq22cONjKeHmkruzS7vQ+O609F8N32vMvkoqQZ+aeXcq//ABTGvUPDvwVtrWNJtWvGuLn/AJ5RKvlL/snPzMa6/wD4Q+FNqrcS9P7qqqj2r9IzTi6nSvSwS5n3ey9EfK4LIpStLEOy7dX6s870vwPplgo86Jb6X+/cf3vZa1V0myX7tnB/35Wuv/4RGL/n4l/75Wj/AIRGL/n4l/75WvzWvmOLxEnKpUk2/N2+SR9bTwtGlHkpwSXovxZyX9lWX/PpB/35Wj+yrL/n0g/78rXW/wDCIQ/8/Mv/AHytH/CIQ/8APzL/AN8rWH1qv/O/vZr7GH8q+5HJf2VZf8+kH/flaP7Ksv8An0g/78rXW/8ACIQ/8/Mv/fK0f8IhD/z8y/8AfK0fWq/87+9h7GH8q+5HI/2XZ/8APnB/35Wj+y7P/nzg/wC/K1bb5Wb6n9GptH1qv/O/vYvZUuy+5HzV+1FczaN4h0NbGWSyRrR9y27MisQ+ASBivFP+Ei1PZn+07z/v81ezfta/8jJ4f/69H/8ARteD7M9q/cMinJ5dSbbbs+p+V5uksbUS0VzR/wCEi1X/AKCV5/4ENR/wkWq/9BK8/wDAhqzqK928jxbmh/wkmq/9BK8/7/NR/wAJFq3/AEE7v/v81Z9FFwuSTTSTtukdnb/bqOiikSFDyfI/+yu78ByaKRlEvyyf3h/3yWUNWVR8kHPsjelFTmkz9OP2RvhpH8M/gno7SRbNX1wDVL2T+LL/AOqiP0jr2VOoqG0hgt7G0jt1XyI7eJU/3AihRUpr+dMXWlWrzqvVt/qfsuGpKlShTjskQXEafZ5fkX7j18K/Bv8A5Kda/wDXQ/8Aodfddz/x7y/7jV8KfBn/AJKba/8AXQ/+h17OXf7jifSJ5GP/AN8w/qz7w8tc8xrXzz8TP2qxpOsT6P4RsItQlhJjk1Cf5otw4YRqGDMB/er1T41+IJ/DXwp8T6javtnW1Ecb/wB0yusX5jdXx58I9a8L+H9c+0eJvP8AIVflW3h83cwoy3BRqUZ4uUHNppJa2b3bdgx+LlCtDDxmoJptt2ulskrnoFv+1H8QNIZLrVtI0+4scj7lq0X5OGNfQ3wx+KekfFDRheWO+3nU7Z7SXazxNXneo/tDfCzVNJuNNmgvHtZoTG0X9n+teMfs465Jo3xMSG3LeRcAx/lXXXwirYWdapR9nOFmrXSabs1ZmFHFOjiYUoVeeEr32bTSundHrk/7TOp+HPiJP4d8VeH7TT7aO4MLXNrM5ZQfuS89jXud1rVlZ6NPqlxcLDYwwmZ5/wC6gXLGvGv2n/hX/wAJb4eHiTTYGfVdLiLSqn3poP8AEV8+al8XNb174b2Hgv8A5YLMGll/ilRWzEhqKeX0swp061BJJO01fayvdDnj6uAqTpV7yv8AA7b30s7HungT9p+98ZeNP7N/sGKLSmkKxSLIzT88J/s15b8dvitr/jVU0PWvD0eiRWN68kLfvVdlHHevWf2bvhiuiaautXifv5FHlfjVX9sKziTwnodwsSpO18VaT28qrwNfDf2ko0aa5W7J3d1ZasnG0a/1BurN3Su1ZWd3ojyf4Y/HTXPhtor2On6FbahFIQ3m3DSr/wCg19ceA/GcXjrw7BqkMD2+4BZIm/hfbllDfxAdmryP9lzRbDUvB0zXVnFcMsg+Z1r3mzs7exiWO3ijiiU/Kq/KteRmValUrSjTgotN3au29d3c9TL6NSnSjKU3JNKydklp0sS0jKHpaK8c9Q+Ov2tFC/FS3/7BsP8A6HJX0n8JIwfh/pPyr/q6+bv2tf8Akqdt/wBgyH/0OSvpT4Q/N4B0f/rnX02aa4TDejPnsv8A96xHqZHxf+NOkfCS1iha3bUNXuAWgskZV46b3bnivCW/ak+Il/I0lnp2mpB/dWzaX+b1xvja+m+Inxo1eaT5/OvjDEv92KNtiKPYbea+x/BXgPS/C+i29vHaxvJsG+V1VmY1pWWHyuEKbpqU5JNt3aV+iSFRdbMJzqKo4wTskrXdurbPHvhv+1cmr6pFpfiywj0+WQ+Wt9a/Kiv6SIWLLX0RHIksasrK6sK+Wf2uvBNhpU2ja9ZwJby3ha1n2/xFeUr1f9nXxNP4j+Hdr9qbfPbqId3+yK58fh6LoU8ZQjyqd01uk12NsDXrKtPCVnzOOqezafc9Q28V81/tn6TcNb+FdWUb7SE3FrJ/ss20p+e16+lMcVneJPDtl4r0W60nUrdbixuhtkib81YN95SO1ebgMV9SxEKzV0m7ryas7HdjsN9aoTop2b2fmndHjP7LHijRrzwydJjlih1qMnzIPlV2UfxCvdJreOdWimjV1/uvXx/8Qv2Zdf8ACV0b7w7K+p2cZ8yPY225hIqb4a/tKeIPCWoppPizfqGnqRDJLcKy3Vsw/wDQgK9uvllPFKVfAzTW7T0avroeTRzCphXGhjYOL0Se6du59V+JNU/4RzwzqWpQxLN9htZLgR/wsyLlQWH3Qa+f9J/bCh/4R+6uNU0Jf7X8wLbW1lIyoyn+J2avavG19Fqnw18QXVq6ywTaXOyMnoYm5FfGXwV8GxeNfFkFnIzKuA26sMBQwzwlSvXg3ytWs2m79DXGVq/1qnRoSS5k73V0rdTuJv2qPiBEzXjabpqWP937K/6vvr3D4P8Ax10/4p2jwyQf2fq8IHm227crdtyV2Vl4J0Sw0ltNWwiazZDHIrqrbgVw2frXxXobSfDn4zXFrbvs+w6jNZ/7yB8Kpat4Rw+Y4epy01GcFdNXs0t00zKbrYCvTUqjlCT1Wl03s00fbPirxRp3grw/d61q0/2extRuZvvMzHhQF9T2r5n1j9rDxXrOoOvhvRrS0s/4ftUbTSt9WFaH7YXiSWWPwro8bfuJo5L6X/0BKw/gz8SPh74I03drC3b6h/sWfmqtGFwfssJHEKl7Scm7JptJJ2u0hYnFupipUHU5IRSu1ZNt62TZs+Gf2sNb03V47Xxlo0XkSEbp7WNopI1PDNtOVYCvpXSdWttb0+C/sZ1uLaZA0cqfMrKa+Wvjz8VvAfxG8IpDpKXf9s29wskDPZ+UqoeHrrf2U/E0n/CJ31ncMzwWKmZf90VOYYNfVoYhU3CTfK1rZ9U0mVgcW/bToOpzxSun1Wtmm0dL8Zf2hLD4aXn9j6fZrquv4DSRM2IoFPK72Hc9lryRf2mviV811/ZunvZ/9ebfqwevL9N8QWer+Op9Y8QSy+VdXT3E7RLvbczZbC8dO1fSul/tFfC/SLFLO3S8SJR/0D67qmD+pctKnh+d2Tk7Npt7pWOSGLWLvVqV+RXaSTSaS2bub3wd+P8ApvxO3WNxb/2ZrUY3Nbbt0cvbchNekeINfsfC+i3mralOtpY2cfmSy/oqhf4ie1fDWoeJNLt/jI+teF/Nt9MkvRNArLsba3Lr/wB9V7J+1p4nlfwf4X02NtkV9I91L/tBFwtceIyuE8dTpU04xmr26rq0dVDMZLB1ak2nKLav0fRMwde/a28S6pqEi+GdItLSzUnb9qjaaVvrWj4P/aw1e11iCz8YaPEsEzBWubWNonjzwrFCxVgK1f2Y/h/YS6C2sXUC3EjELHur2PxZ8N9A8Z2P2fUtPifaQ0cu1VaMiuetisHCcqCoLkWiet9NL3NqOFxTjGs6z5nZtNK2utrHEftLXkF/8DdSuIXVoJJrRlb6zLXzz8LfjBJ8MdHvIdP05dQ1W6JWPzdyxRj1Kj5mNe//ALRGlRaH8Ab+xt2byIZLRV3+0y15J+zT8O9P8W3095ffOtufmj/vYrsws6NLKnKtHmSnor2TdtLnLiIVamZKNKXK3HV2u0r62RJa/tWeOdIvIpNW0vT7izZv9X5LQs30fca+lfAPj7TPiN4fg1bTdyKwCyQPt3xv/dOO4rlfjz4R0u4+DviDbZxJ9htxdQbF+66NmvJ/2QtTkTU9Us9zeXJ835VzYiGHxWBeLpwUZxaTSvZpo6KEq2Gxiw8puUZJ69U0z6mooor5k+gCiiigAooooAX61gePvBUHxE8D+IPDE23ytWtJLdWb+FyuUb8GreAIpGrSlUlRqKot09PkTVgqkXTezVmfjhqFhdaRfXlleRfZ76zme3ni/ijkRmVgR7VUdspX0h+3R8Mz4P8AioviSzg2aZ4mBuG/urdp/rfzr5x2Gv6IwGJWLw0Kyd7q78n1PxvFUXQqypvoxKKKK7zgCiiigAooooAK9p/Y6/5OD8N/9c7n/wBENXi1e0/sdf8AJwfhv/rnc/8Aohq8vNP9yrekj0cv/wB6peq/M/SSiiiv5+P2Q3bbxxqVjDFCjQbI1CruQn5QMCpv+Fg6v/fg/wC/RrMh8N6pPFG8dhM8bAMrZXGDyDUn/CLav/0DZvyWkGpeHxB1gdXgP/bI1HN451KeFkkFs0bj5laHIweoYHsaq/8ACLav/wBA2b8lo/4RbV/+gbN+S0BqeXeMLS+0aRryzMf2Fj93buaFi33T7ejVzH/CR3395P8AvmvdZPCmrSqUfTJGRgVZXCsrDoVI9DXlvjP4XavoBe7g024OnucnB+aInscUyveOd/4SK/8A7yf980f8JFf/AN5P++ar/wBk3v8Az5vR/Zd9/wA+r0BqWP8AhIr/APvJ/wB80f8ACRX/APeT/vmq/wDZd9/z6vR/Zd9/z6vQGpY/4SK//vJ/3zS/8JFe/wB9P++arf2Xff8APq9H9k3v/Pm9AalX/E/rRR/8VRQSfL/7Wv8AyMmgf9eUn/o2vBz0Fe8/tbf8jL4f/wCvKT/0bXgx6Cv3XIP+RbS9Gfk2cf79U9f0CiiivoDwwooooAKKKKAHUySEyxyRqeGB/MrS0u77tJxTi09i4ycXdH6s/APxxH8Rvgz4U1pX3ztZJZ3f+zcRfu3r0HDEV8H/ALBvxWHh/wAa3XgHUJdtjrxNxYMzfdvFX7v1kWvu89PxNfgGb4OWBxk6b2eq80z9ey3E/WcNCS3tZiXX/HtL7I1fCHwZ/wCSm2v/AF0P/odfeEyb43T+8D/30VxXyH4D+D/ijwl8UIGvLDfBHId09vuZNpatMBWhTwmIjJpOSVk93Z62MMbRnUxVCUU2k3d9FddT339oDSX1n4O+J4YY988cC3C/7sbrIx/75Wvmj9n3wPofj/WLvT9WRWZY/Mjr7VmjSeF45EV42BWRX+ZWUrhlK+hr5O8dfAXxN8OfEza54Hllez3loli+WWBTyyHPyuBW+XYim8LPBufs23dO7Svs02jLHUJQxEMUocySs0rN23TSZ6v/AMMveDP+faStTw38AvDXhXVoNSsIJEnjPy14XN8ZPjJLC1rs8lv7y2KK9egfAe7+IcmuXk3iSe8vbO6Ak3XTfdYcKE/ug1z4mhUp0n7TEKW1lzNt6m+HrU6k1y0XHfVxSS0NX9pb4q/8IR4X/sXT5dmtaxGy/L96C3PDv9T91a+VpPB+q6X4bt/ESxN9h88QtL/DG55VT7GvTfEXwr8ceMvihcXmvWavLdXA+a3ZnijQNhFDFRwK+mIPh3pc3gN/C9xAr2M0Bhl/3jzuHuO1elTx1LLI06FJqSfxtWad1ayPPng6uYSnWqJpr4Vs1bW7Mb4H/EG28eeC7Ro9sV5agQzwf3WFcP8Atj/8iXoH/YQP/oFcb8OfAfjb4O/Ebatm17pUz+XLLb/MssQ+49e5fGj4dt8UPAcumwyrb6hDIt1aM/3fMXhlPsVauKDw+CzKNSnJOF7q2tk9LM7JqvisDKFSLU7W7Xa1ujiP2Tv+RKuP+ugr3PH5V8Q6LN8UfhjHeaPpsF3p/mH5tkaS9P4kY5r6y+GOuavr3hW2utYga3vMBW3/ACtIwXDEr6muTMqEKdV1FNSUm7cru0m76nTl9eVWkqcoOLirPSybStodXRRRXjnqHx5+1r/yVa3/AOwdD/6FJX0p8H22eAdI/wCudeMftMfCvxD4o8YW+uaXbx3dn9ljt9qszOrKzFiVr2/4Y2U+neCNNt7pGinWP5levoMwrwqYbDxptNxWy6PzPFwNGdPEYhyTSb0b6+h8cNCfCXxwvYbz5fs+rSK2/wDus2Vr7rtpBLbpIrblYCvE/wBoH4ByePLga9oe1NaVBHcQN925VeFb6ivJbHxx8Y/CFj/ZKtdLBGAqtLbxSuoHCqHKmu7Ewo5pGnWjUUZpJNPTVdUzjw8quXSnSlTcoNtpx136NHZ/tl+ILdo/Dmhq++5UyXjr/dQ8JXY/st6fJZeA3aRWRZJBXh/hf4QeLPiJ4kbUtaW5lnuHDT3N1/ERX2D4V8PW/hfRbXT7cfLCB/wJq4cwrUqdClgqMuZRd21s2+iOrA0as608XVjyuS0T3SXc1d3oai+2232r7H9oi+2bPM8jzF37d2N2PSrGc9a8F/aF+Dut+KdcsvFXhu8kTU7WEQtCrFH2ryrRuK8rC0qVWpy1Z8qa0bV1fomenialSlT5qUeZp7bO3Wx7uygfWvkv9sGx0yy8WaG1qkUWozWjtd7f4l3YiY1kf8J98Z9Gj+xyXWo/KNu54Ynf/voqaz/Dfwh8XfEHxA19q0dzLLM4aa5utzMxr6TBUaWWVHiKtZSSWiWrbatZo8DF1qmYU1Qp0ZJt6uSslZ3vc9n+GtxcXH7O+trcM37vTrlV3f3RFXj37MN5Bb/EWCOSVUaSMrHu/iIr6d1jw3D4S+EGuabD86w6XP8A99FGr4s8A+DdR8a6gbfSZVt9ThAmg+Zl+YLnaGHzKfRqeAVOtgcQqsuVN+qTb0JxrqUcXQdJczSfk2ktT9CmlVY2aRlSJQWZn+6qhcsT7CvgabUP+Ey+Lmo6hCv7q81Ka4j+jP8ALiuo8UeJvi7qmkv4f1Zrz7MwMcqrGitKv913Wu0+AXwPvbXVItW1aFraKPDKr/xEVnBUssw9S9RSnNWSjqknu2zWbq5hXp2g4wi7ty0ba2SRQ/a80eW3uvCGpf8ALNrKSzZv7rK2VB/76rX+DvwX8J+PPBtvqVxBvnyVbb6ivbviR8P7L4meFbjR75mTcRJBOu1mhlH3SFNfL9r4d+KPwO1K5j0cPLZsT80SrLBJ9UanRrRxWCjQjVUKkH1uk03fcKtKWFxc60qbnCSWyTaa02PbP+GX/B3/AD7vXU+EfhTo/guxv7XSlZPtkLQtv9GXFfN998TPjH4mX7Ks9zZIw2t9itVhbaa+h/g1N4jfwnBH4kD/AGmFUjWWXczyKFxksfmYmvLxVOpRiuaspO+3M3bzbPRw1SFWT5aTirb6K/kkfHvw38P2N/8AECLQ9ai+VpjbyK38Lq2GXnuK+oV/Zh8Gf8+8lcj8df2fLzV9cl8VeFTsvpj51zaJwzSDlZUYdzXGW/xY+Muh2qWLRO/ljask9mjvXtYqSzC1ehXUW1ZqUmrNb2PHw8fqN6Nai5JNtPlTumez2v7NPhC1uEmjt33KR/30K8//AGxdFNvo/hS6jX/Rbd5rX/vpV/8AiaofDvXPitq/ja11DUri8uLbBWSCX5YtrfxbAoXIr6D8feBrP4ieD7zQ77ciTANHIv3opVbKuPcV5dGt9RxsKlSaqJbvVpJ6NJs9KrS+t4SdOnBxb2TSTbWqbSOE/Zh1CC9+G8Cxt80JKyL9K9aurqG1haa4njt4shWklZVXJbCjcWC5PZa+NLfwz8TfgdrVyuiq7wMf9ZAqyxTKPVGqvd2XxK+LWsWbaxJeXCwyCSOLaqRRsGzuCKoVTW9fAUHOVVV1yN3Vnd2etrGNHG1lCNJ0XzpJO6stNL3PoL9qIf8AFltX/wCvi1/9HLXA/sgf8e2qV6D8SvAuueKPgrPoMbpcawwt5G81vvFHV2rl/wBmHwfq/hSPUV1SyktNxrn9tT/sv2N1zc9/O1rXN1Sqf2l7Wz5eXfpe97Honxv/AOSP+L/+vCSvAv2R/wDkZL76Gvo/4laBdeK/AOv6PY+X9svLR4YvNbauTXiP7N/gPXvCHia//tawkt1/vfw0Uq0IZbUpNrmck0urVtx1KVR5hCqk+VJ69E77H0jRRRXgnsBRRRQAUUUUAKRikBx+dKTmgDNHqB5t+0P8KU+Mfwt1PQVjV9VhBvNNlf8AhnTkD6N901+WVxC8EzwyIySKSskf3WjcNhlI9u9fsr91/wCJWr4N/bl+Cx8L+Km8eaRa/wDEn1pwt8qr8sF5/e+klfonCmZKlN4Oo9Hs337HxufYHmSxEVtv/mfK9FK1JX6u9GfngUUUUAFFFFABXtP7HX/Jwfhv/rnc/wDohq8Wr2n9jr/k4Pw3/wBc7n/0Q1eXmn+5VvSR6OX/AO9UvVfmfpJQy0UV/Px+yHoOmeO9Ks9NtbeSSTfHEqttj7jg1aHxD0Y/8tJv+/ZrzSipsVc9LHxD0Y/8tJv+/ZoHxD0Y/wDLSb/v2a80oosFz0sfEPRj/wAtJv8Av2ajm8eaHcRNHL5ksbgqUaLP1GK84oosFznvHFrpuiTteac8raazfMojbMRPYsW+Yehrk/8AhKLL+9J/37r0ySMSxssiq6sCrK/zKwP3lK15j4w8HvozNeWYZrFj937zRMf4T7ejVQXHf8JLYesn/fNH/CS2HrJ/3zXL0UBc6j/hJbD1k/75o/4Siw9ZOv8Adrl6KAuK3+sb6n9WpKKKCT5g/a2/5GXw/wD9eUn/AKNrwY9BXvP7W3/Iy+H/APryk/8ARteDHoK/dcg/5FtL0Z+TZx/v1T1/QKKKK+gPDCiiigAooooAKN/vRRTuBa0/ULnSLy1vrG5a01CzmWaCdPlaN1bKkNX6wfB/4lW3xh+G2ieLLX5JbqPy72D/AJ4XScTJ9C1fkr/FX1J+wj8Wf+EU8e3vgu8l/wCJf4iAmtP7sd7Gv85Fr4bifLlisN7eC96H5dUfWZHjXRreyb0l+DPvfOaGIzQqj+92oxg+1fjnmfpOzEooooAj+ywf88o/++Vp6qE/hWlooAXatJRRQAfLRRRQA2SGN2+ZFpyqEWiigAooooAKKKKACo2t4pW3Mif98q1SUUAIsaL91VT/AHaWiigAooooAja3ilbcyJ/3yrU9VSL7qqlLRQBgfELL+APEv/YNuP8A0U1fJ37LDB/iAn/XM19ogGsS18F6PZaw+rQ2UaXzE7p69OljPZYWpheW/O737Wdzz6mE9pioV725Vtbe6tua0lvE7fNGm6pdq0lFeYegFIyiVdrKtLRQBGtrEn/LJP8AvlakoooAKa1rE3/LKP8A75WnUUANWNF+6ipTqKKAEaNG+8iv/v0iwxxfdRU/3Nq06igAooooAKNntRRQAUUUUAFFFFABRRRQAUjNS0P3oAH5xWN4w8I6X498K6l4f1yDzdM1KExy/wB71Uj+6V+8K2qKunN0mpxdmnp6omcFUi09U1qj8j/ih8OtT+FnjfV/C+rL/pNjJ+7n/huYW5ikHsVrk6/SH9rz4IH4r+AV1fS7ff4o8PxtNB5S/NcwdZYD/wChCvzgZd/zV+65LmazLCxf21o/XuflOZ4F4Ks4/ZewlFFFfRnhBRRRQAV7T+x1/wAnB+G/+udz/wCiGrxavaf2Ov8Ak4Pw3/1zuf8A0Q1eXmn+5VvSR6OX/wC9UvVfmfpJR/BRRX8/H7Iem6R4W0mfS7OSSwiaRolYnnuKuf8ACI6L/wBA23/KvK1vLhFXbcS/KP8Anoyrtp3265/5+Jf+/lTYq56l/wAIjov/AEDbf8qP+ER0X/oG2/5V5b9uuf8An4l/7+Ufbrn/AJ+Jf+/lFguepf8ACI6L/wBA23/Kj/hEdF/6Btv+VeW/brn/AJ+Jf+/lH265/wCfiX/v5RYLnqX/AAiOi/8AQNt/ypkvgzRJEKnTLcowIZGTIIPUYrzD7dc/8/Ev/fyj7dc/8/Ev/fyiwXMz4g/CC08OzPe6fYrJpbH5l5byCe5/2a4f+w7L/n1WvSZLqeWN45J5XiYFWV2ZlYHhgV/iBry/xh4Xn0aRrq1eV7Fj/eZmhY9j7ejVQXJ/7Dsv+fVaF0Oy/wCfNOtch503/PWT/v5R503/AD1k/wC/lAXGt95/940UUUEnzB+1t/yMvh//AK8pP/RteDHoK95/a2/5GXw//wBeUn/o2vBj0FfuuQf8i2l6M/Js4/36p6/oFFFFfQHhhRRRQAUUUUAFFFFACHirljfXmnX1rfafO1vqFnMlxbSpw0cqNlW+g71Up2797WU4KpFxaune/mnujaMmpKS3R+tfwl+I9n8Wvhzo3i62+X7dHtuYv4YJ14lUgejV11fCP7BHxZ/sHxrqPgO+n2afrwN1Zb/uw3iLyo/66Ktfd2MGvwLN8FLAYqVJrTdejP13LsSsVh4VW9bWfk0JRSLS14x6QUUUUAFFFFABRRRQAUUUUAFFFFABRRRQAUUUUAFFFFABRRRQAUUUUAFFFFABRRRQAUUUUAFFFFABRRRQAUUUUAFFFFABRRRQAUUUUAFFFFABRRRQAUUUUAFFFFABRRRQA6JirL9a/Oz9sr4Hj4aeOE8RaTBs8L68xkX+7bXfWWP8fvCv0Sc9a5T4ofDvTfir4B1fwvqnyRXyDyp22s0Ew5SQMa+gyTMZZdilO/ut2fo+p4+aYJYug0l7y1Xn5H5I0w8VreKPDeoeD/EmpaHqkDW+pafO9rPG3qrY3D2Pasnqelfu8JKpFTg9Hr6n5RKDhJp9BaKKK0MQr2n9jr/k4Pw3/wBc7n/0Q1eLV7T+x1/ycH4b/wCudz/6IavLzT/cq3pI9HL/APeqXqvzP0kooor+fj9kOotPAF3eWkM63cKiZAy8eozirH/Cs7z/AJ/YP++WqCz+IFzZWlvbixicRJtB3kHgYzVj/hZt1/z4Rf8Afw1OpWgn/Cs7z/n9g/75aj/hWd5/z+wf98tS/wDCzbr/AJ8Iv+/ho/4Wbdf8+EX/AH8NGoaCf8KzvP8An9g/75aj/hWd5/z+wf8AfLUv/Czbr/nwi/7+Gj/hZt1/z4Rf9/DRqGgn/Cs7z/n9g/75aj/hWd5/z+wf98tS/wDCzbr/AJ8Iv+/ho/4Wbdf8+EX/AH8NGoaCf8KzvP8An9g/75amN8MrqRXVrm3ZCD8rqxBz1BFSf8LNuv8Anwi/7+Gj/hZt1/z4Rf8Afw0ahoeSePPgje+GS17azxS6exJbO4tEfQ+xrjV8L3H/AD8RV9Cz/Eaa5R45NOgliddjK0hKn1BB4YFa8m8aRy6RNJfWNkv9nsfmj3MzQsf/AEIejVWvUNDzv+Jvqf0pKX+Jvqf1pKCT5g/a2/5GXw//ANeUn/o2vBj0Fe8/tbf8jL4f/wCvKT/0bXgx6Cv3XIP+RbS9Gfk2cf79U9f0CiiivoDwwooooAKKKKACiiigAopKVSKNS0i7o+sXnh7VLHVNNla31CxkF1BKv8Lq2V/Putfrj4D8XReP/AXhzxPCNsWsWMV5tf8AhZl+Za/Kn4d/DzWfiz4us/DOg28st5dELLLt3JbRjl5JP7oFfrB4U8M23g/wvpHh+z3fY9LtIrOL/aVFxuPua/LOL50XKCTTmlr6H3vDkaiU7pqL/M0/uHFAFBA/nWT4W8RReK/DtjrEMMlvHeB2WJ2VmwGZOWHrtr855Hy+06bfNn3apTdP2iWie/qatFFFSYhRRRQAUUUUAFFFFABRRRQAUUUUAFFFFABRRRQAUUUUAFFFFABRRRQAUUUUAFFFFABRRRQAUUUUAFFFFABRRRQAUUUUAFFFFABRRRQAUUUUAFFFFABRRRQAUUUUALimsSV+9TjQD+VHW7E3+B8eft5fBsT2Np8RtLh/e25FnrP+1EeIbivicqc4r9jtW0ex8Q6Te6TqltHd6ffQvbzwN8yyRsuGU1+TXxO+Ht78KvH2s+GL5meWxmKwyP8AK0sJ5ik/Fa/XOFcyeJovDVH70dvNPofnWe4H2NVVY7S/M5aiiivvz5AK9p/Y6/5OD8N/9c7n/wBENXi1e0/sdf8AJwfhv/rnc/8Aohq8vNP9yrekj0cv/wB6peq/M/SSiiiv5+P2Qk+yzuq7beX/AL9sy0v2S4/59pv+/dek6R4m0mHSrOOXUYFkWJcqzjdkCr3/AAl2i/8AQSt/++6m5Vjyj7Jcf8+03/fuj7Jcf8+03/fuvV/+Eu0X/oJW/wD33R/wl2i/9BK3/wC+6LhY8o+yXH/PtN/37o+yXH/PtN/37r1f/hLtF/6CVv8A990f8Jdov/QSt/8Avui4WPKPslx/z7Tf9+6Pslx/z7Tf9+69X/4S7Rf+glb/APfdH/CXaL/0Erf/AL7ouFjyj7Jcf8+03/fuj7Jcf8+03/fuvV/+Eu0X/oJW/wD33R/wl2i/9BK3/wC+6LhY8o+yXH/PtN/37pGsZ5VZZLOV1YH78LMrKfvKVr1j/hLtF/6CVv8A990g8WaP31KD8XFFwsfK/i7widGZ7yzDNYsTuX7zRMex9vRq5evdbhUlkl/jVi3y/eVgW7r/ABA15l4u8HtozNeWvz2OfmX7zQsf4T7ejVRJ8c/tbf8AIyeHv+vKT/0bXgp6CveP2tf+Rk8P/wDXlJ/6Nrwc9BX7rkH/ACLaXoz8mzj/AH2p/XQKKKK+gPDCiiigAooooASn0wdKNnI4plrc9H+BfwZ1L45eOItDsbhdPsbeI3V9qDLu8iEei/xOe1faWl/sKfC6wt0F0msarPgeZJLqDRbv+/deN/8ABPSdk8ceMrf+9pcLflLX3OoxX5HxFmmMpYyVGlNqKS201tufomS4DD1cMq04pt9znPBHw98MfDTS30/wvoVrolnIR5n2dWZ5GC/KzuWLOa6L+FchaWjtXwUpzqPmqNt93qfWwhGCtFJLslYr6lL5WmXkn92Bm/Ja4v4FzfaPhPoLe036SsK6fxLN9n8MavN/ds5W/SuU+A42fDWyh/55zzqP++816C0wbfn+Fj6SnTvlE5vdTjY7+ik+5S15h881YKKKKCQopN1LQGwUuM0Ft1A9qFqroPMSiiigAooooAKKKKACiiigAooooAKKKKACiiigAooooAKKKKACiiigAooooAKKKKACiiigAooooAKKKKACiiigAooooAKKKKACiiigAooooAKKKKABtv1r5J/b8+GKah4e0jx3ZxfvNNI0++b+9C5zET9Gr63TjFYnjTwnbeP/AAdrvhu+VXs9WspLWT/ZLLhWHuGr18qxbweKhV6J6ro03Y87MMLHFYaUHvrZ9rK5+P8ASdKtapptxoupXmn3i7Luzma1mT+66NhhVZ+9f0DBppNbNL8rn4/JOLswr2n9jv8A5OC8N/8AXO5/9ENXi1ez/sd/8nBeHP8Arnc/+iWrzs0/3Kt6P8jty/8A3ql6r8z9JqKKK/n4/ZAooooAKKKKACiiigAooooAKKKKACiiigApGUSqysqurA/f+Zdp+8pWlooA+CP25tFi0Px14fjt2byprB5FX+7mWvmmvqb9v3/kf/C//YMP/o5q+Wa/dcg/5F1L0PyXOP8AfqnqFFFFfQHiBRRRQAUUUUAJ/FQ4zmlTtSyfIqs3yLn/AHf/AB40m1ZNuxok29D6w/4J6RF/HXjKZfuLpMK/nNX3UnUV8qfsDfD3UfD3g/xD4m1O0lsk1ieOGyWdWRpII1y0n0LNX1T07V+EcQVo1cwnKLTXqt0frGT0pU8HBNa66dbMd2opC1DHpXznzX3o9zXTz0+8wPiJMsXgDxK2f+XCb5vwrkvh3rVn4N+HmpXmpO0VnZ6pLHIyL3Z1C8D/AHqz/FHjefxB4f8Aidp7PF9lsY4YbXav8LttdifXdWL4ogN38OPFmlruSSbxALddvqyq9fRUcM/YqjU0u1f0aufeYPAP6qsHW0cpx+V0e7PkswFL/BWR4Q1YeIfC+j33/P1aRyN838W3DD6itduhrwJRak12fofDVqbpSlTfR2XonYKOtN/BqUNUJ9jPVOwFinzCuJ+L3i+58FeBrrUrOVbe++1WsKNtVtoabD/nHXVa5qa6Lo2o6lN/qrW3km/75GQK8H8XazfeM/gh4YF9M1xqtzdyrK7/AMTxJM+SB6ba3hHVN7H0eTZa8TUhVmvdvb8D6FZhuY/98/7p5oXnHNc/ofiawk03wxHNeRLfapYLNBCzfNOqxKWIJ9K3dxPSsnFrRnhV6MqVSSasr6N6J2dtB1FCsPlp+1ai5ziB8fWkP1pGaqGteIdP8N2a3mqXkVjbGZYfMlZvvuyooGO5o2VzSFKdRqKTbe3fRX0Rofdb5hSJ2rh/EXj240T4peG/DeYvsOowS+e235llP+pw3oWV8V3OeKUZJuyOivhKuGjCVVWUlp6XtdiUU3I9KN4p3OPT+kx1LTSelOzRcLO2gvU9KTiq8mpWkeoQWMl1Et5MjzRwblWSQL94geg7tVjkfw0uaPR/8B9i3CStdNN+TXzF4pOtJ83elQrV8vqR6/kx3y+tHy+tR7s9DS5x1p/J/cytLX/Rj+i+9JxSHdS5Dj7y/L95fvMrHnaahtJ2+7z7glJptbIbRRTd/vTJ6DqWPtSbhTd/vQ7LRsrcdT9oFRMGFSfwtk0Wb2JG0U2jd70Bpux1FLg0YNVZgJRScULUvQeiHbBT8mo6buWi8SU1/SY6iiigYUUUUAFFFFABRRRQAUUUUALRQRzRR5i0vY/Mb9r7w3H4a/aF8Vxwpsgvnj1JV/2pUUv+bV46x+YV9Ift9qv/AAvG02quf7Gt/wBHkr5vf5pRX9CZVUdTBUm+sV+R+PZhFRxU0tk2L3Feyfsg3UVr8fvD01xLHbweXc/NKyqvMLCvGsYQUq/LmuzFUfrNGdFu3MrX3tdWvY58PV9hVjV35Wn+J+vH/CQaV/0FNP8A/AyKj+39K/6Cun/+BiV+Q+5v71G5v71fBf6nR/5/P7j67/WaX/PtH68f2/pX/QV0/wD8DEo/t/Sv+grp/wD4GJX5D7m/vUbm/vUf6nR/5/P7g/1ml/z7R+vH9v6V/wBBXT//AAMSj+39K/6Cun/+BiV+Q+5v71G5v71H+p0f+fz+4P8AWaX/AD7R+vH9v6V/0FdP/wDAxKP7f0r/AKCun/8AgYlfkPub+9Rub+9R/qdH/n8/uD/WaX/PtH68f2/pX/QV0/8A8DEo/t/Sv+grp/8A4GJX5D7m/vUbm/vUf6nR/wCfz+4P9Zpf8+0frx/b+lf9BXT/APwMSj+39K/6Cun/APgYlfkPub+9Rub+9R/qdH/n8/uD/WaX/PtH68f2/pX/AEFdP/8AAxKP7f0r/oK6f/4GJX5D7m/vUbm/vUf6nR/5/P7g/wBZpf8APtH68f2/pX/QV0//AMDEo/t/Sv8AoK6f/wCBiV+Q+5v71G5v71H+p0f+fz+4P9Zpf8+0fT/7e17bX/jzwu1vdQXaLpZ3NBIsv/LVq+YTn5aRmZqWvuMBhVg8PCgnflW9rX1ufK4zEfWq0qtrX+Y2iiivQOAKKKKACjf70Ub/AHpoBV+9+8+fivrL9jXR9C8VWd7Z2Mui2Xi/T8XE0upaSt3cyRn7ssTltqj1r5OUsVz1r3P9ieG6b9pDw61pu8pbW9a7/wCuJir57PE/qE3F2a1+7ofT5Hi3hcWnyKV9LOzXyufe39lePGXc3irR96j5Yv7FbypFC4Xflyyn/dqrJpHxAsmWa38Q6ZqE9x8ssF1Z+VFaN/CYguWYD+61duTx+Ap9fiX1uW/LHXfRavufsUcfNfYj/wCArbscYuh+O7WPyY/FmnXEH/PzdaWrXO4/wlVYIwqlqv8Awnmg2zau2pWetLaZZ9JsLFYfPjHBYEsS0gr0DbzQKI4qSd3FNeituXDM5Rkm4Jq+1lqj541XS5tC0t7e6+S51nSrKaf+FmmN9l/y8yujvkP9uXFh/DJ4ytWZf9k2+aufGu13eIvBTKf+Pq9Frt+k0b8/981DfL/xeBbX+94kt7j8tPY17/O5UlU6tfimfcxm61CNfq4uXo07F/whofjqws5tNs7qz0fT9NuJobRb+3Wb7apdnUlVYMqCtO48NePLVmms/FFrcSXny3n2q3URWi9Fe2VfRf4WrvPMxS8mvnfrMr3svz/M+KqZrUdRy5Er+SZ57/wiPjPb/Za+KVTRo28yLVPLVtRb+7GcrtYDu1TLo3xCvC003iDTNPnt/litoLXzYLnszy5+Zc9lX7td3tx2pDWbqt62RKzKpZWhH7lfVnhvjex8Q+Gi2kajq02r/wDCYtDZtP0SC53qHWNf4EKNUdlYJceNLbw8q/ubXWNWkWL+6jWuV/8AR1e4XVnBdeU8kEcrQuJovNVW8s7cAhj90js1eX6LYiP9pPVF/wCWS6d9sX/elWOP9dtbwqKad0tNT6jAY+OLpT5rRcI8z0sm720SOT8I6LdfEGz0ZbO4Wy1Lw7oNr9mnfdtjut+FBx2Kx7Wr0pdH+I2BI3ibQ3kmP72KXS2ZIP8ArkwYM2P9qsn4FaHLo1v4oa4iaJ21aa3Xf/EkTYUjNen59a56kvedjzs1zB0q7o0kpQXdJ6b6NnC/2D8QJWaFvF2lpB/z8xaSPP8AVQVLFKd/YvxBb5m8V6HFKv3YotJZopF9XYtuUn/ZrtttG2sLI8f+06n8kf8AwFHFHw94/b73jfT/AJseYv8AYq7Y/wDrm3/xVcb4y8A+M/FsN3pWvSxahpml2VzdWWqQbYnvLkpiIPEMbTHXtQpM/MP/AEH9GWk4XTSOmhnFSlUTcIr0STV9G00fO73lx430nxB4yi3veaPBpckGxWZlMSrLMoUf71eg6RJ8Q/FFkusQ6rpmhWmoEyQWF5p/nS20BX5GyGH7xu6tW58PfAkPw+0m+sY51uPtF/PdK/l7dqyNlUKn0rq8F/4qyjR6tnbj83g5ctCCaTsm7PS2qSZxK6D8QYv3f/CX6Q8C/duX0fdO3+yVDBac2jfEJxuXxVofm/wxf2OzRSL6li+5TXaIOlAFN0ltd/ezyHmdT+SP/gKOL/sPx/x/xV+kbm+9/wASX5V/3G3/APoVZuqeD/HevLJY3niy2tLOEeZbXulwtDczzD/VCUHKqg7qv3q9HZcUjLurN0E9HJ/ey45pUTTcI3XaKTPD7i08SXUNz8StW0yWx1vRp41GnRL961QMlzsUZ3BtzsK6LQNA8dJarrlnq9tFe61m4vLDVFZ4LJG5h8pVYbXC9V/ir05jyv8AFz/30On6UALWCwUYttN2fn17nXWzmVWPKqa3trqklslc4xdC8b/9Dnp7r/ebRV3/AIqHofRvHm1pP+Eq0bzf4Y/7HZYmX3YPuU12Gz2pdvvWrwkGrXf3s4XmVXrCP/gKOQXRvHSLz4t0pt33vN0fasf+5tcN/wB9UraF41/i8Y6af+4Kv6rvrsEpGUMman6nDu/vYv7Qm9XBfcjg77S/iBawyatBrOn6hqEIOzRLeHybWcdTl2yyynt/DWXD4Q8X+D54rjRZ11LUNaG3V552XyoLnqJwCw4Vf3YWvUR1P40ZrCWXwbvzvy3072uawzSaVnBNeiSaWydjkbfw/wCLrf8AcL4vie1UBlnl01Gumb+6SGCMKm/srxeM/wDFT6a7/wC1o+1P94sHrqP4MUDitPqUP5n+KMnmFRu7jFv/AAo5RtJ8Z/w+KNN/4Ho6/p89RtpPjcfd8UaZ/wCCf5vxXfXWYY96XB/vLT+pR6Sf/gTI+vz/AJF/4CjjptI8drC00PirSri6/htJdJ2QMvuwYuppn9heOrRla38UafetN80/2/T1CwH+JogjDj0Rq7UqaVl9DR9Th/M/vZf9oztbkX/gKOO/sfx2x8tvFmlJF/DPFo6+b/ukFyuKG0fx3/0Nmjj/AGf7Fb/4quv207eT3q44SK2k/vYf2hO3wR+5HGf2P45/h8X6Z/4JVb8mD0Novjnb/wAjhpn/AIJf5/PXY7T+tP5q/q0e7/EP7SqfyR+5HFDQvHh+94x0r/wSq383pBoPjxPueMtM/wDBH2/77rtd3vSEE9qfsI33f4jWZVP5I/cjjP7C8ff9DjpX+9/Yqq3/AKHR/Yfj7/octJ/DQ/8A7Kuz2mnc0/Yru/xD+0q38kf/AAFDaKKK6DyAooooAKKKKACiiigAooooAXHpSHhvSlHrTWuI7VXuLhlSCEPJI3sqszVcFzy5FuyZSUE5Pp+R+a37aWvLrn7Q3iOONt6abHbWP4rEpNeIjmtTxl4kl8X+KdZ16Yt5upXs11/wF3yorI/jr+icDT9jhqdPsl+Csz8axVR1q06ndsWiiiu84QooooAKKKKACiiigAooooAKKKKACiiigAooooAKKKKACiiigAooooAKKKKACiiigBNyorbq/Q39jH4EXPwx8K3XijXIWt/EGvRx7bZ/vW1r1CfU7ua+Y/2Ofh7Z/EP45acuqRLcaZotrJq08D/dmZGURL/301fpa0jMzN8ztk/7LbjX5hxVmclL6lT00u2/yPvsgwMWniqnovXuMooor8zPtxepoxR0NDnrT0v5Ba5x3xB8O3XiC+8H3VrA0v8AZusRXEv95YSrAnmuXuFD/tDW67vlx9qb/wABcV6tt4H/AHz/AMBPFebi3Z/2imb+7ohk/NVC16+FqynSnF/ZTsfYZZi5To1qbVlGnK3q3c9JVTS0jMKWvHPkO3oFFFFAvMXqayo/DtnF4ouNdUyfbprRLF13bl8pWytardDS5GeKFpdLqb06sqakou100/MRnaX+L/7In7zH3NJSDvS0GTk56sKKKKCQooooDzFHFB5pKWiwLQSiiigBY+ook6mgdaD1o6gN20uOMUuOM0lG4dQXNFFFABRRRQAUUUUAFFFFABRRRQAUUUUAFFFFABRRRQAUUUUAFFFFABRRRQAUUUUAFFFFABRRRQAUUUUAOavM/wBpLxU3g34DeN9QjfZO2nGxgf8AvSTMsX6bq9LPH/fVfL//AAUC8THTvhh4f0NX+fVtT85v9qOJc16+T0PrOOp0+ja+5Hl5lV9lhZtaaWPgThVC/wB3FFJ/E1LX9Bq1lY/IWFFFFMgKKKKACiiigAooooAKKKKACiiigAooooAKKKKACiiigAooooHYKKKKBBRRRQAUJ2ooo6AfTH7AOoRWvxq1e1k+9faBcLH/ALySws1foD0PWvy3/Zg8QSeF/wBoXwLfK3yzX5sZf+ucyNHX6lMuyR+O5r8V4rp8mO5+jUX9x+ocP1E8JyvoxKKKK+OPpQooooAkwa4C1tW/4XheXG1v+RfT7/8AeM2G/wDQa70VHsXczeWu/G1m+Xcy9cFvvYrejVdJSS6o7sNiZUOZdJK33u4hYCpKAOaDWG2hwiUUUUAFFFFABRRRQAUUUUAFFFFABRRRQAUUUUAFFFFABRRRQAUUUUAFFFFABRRRQAUUUUAFFFFABRRRQAUUUUAFFFFABRRRQAUUUUAFFFFABRRRQAUUUUAFFFFABRRRQAN0FfA37f3iYar8VNE0WOT5dJ0sSN/10ldj/wCgxpX31GplmVf73/oRr8o/j54sHjf40eLtWVmeNr+S3i/65xr5Yr7nhGg6mMlWf2F+LPleIatqEafdv7kcA/eilakr9fXY/NAoooqwCiiigAooooAKKKKACiiigAooooAKKKKACiiijYAopFJPy0+ASXsjLbq0rf3YlZ/zwpNZSnGnrJpepsoSlokNHFGfatiPwj4iuPmj0HV5V/2dPl/9CC1XuNB1W1XdcaXqVv8A9dbGVf51msRRf21f1Ro6FRK7i/uZntmimSTRxSbWOz/e3K35FaduD7uVrRTjN6NP5oycJLdC0UfLRWuhnYSn8U1cfxV1Pw/+GXij4t6oun+E9EudWlyFknTcttBnjMkpwqCuetXp4ePPUaS63dvzOinSnVlaKbZ1X7Mfhe58XfH7wPZ26s62d8NSuW/hjhgDSfkW2LX6kffY/wB5ia8d/Zx/Zz0/4CaHcSSXEWq+KtQULe6gnyooHKwRe1exV+JZ7mMcwxTdLWKVkz9QyjBywmGSqbtiUUUV8ye4FFFFABRRRQAUUUUAFFFFABRRRQAUUUUAFFFFABRRRQAUUUUAFFFFABRRRQAUUUUAFFFFABRRRQAUUUUAFFFFABRRRQAUUUUAFFFFABRRRQAUUUUAFFFFABRRRQAUUUUAFFFFABRRRQAUtNalA+9QJuybOc+Jfi2PwH8O/E/iKRtv9m6dNJH/ANdSuEA+rV+RCM5XczNu/i/vMT/jX6Cft8eMV0L4UaX4djf9/r1+GlVP+eEK7jX5+DvX6/wnhvZYSVVrWT/BH5zxDW9piFDpFCUUUV93Y+RCiiimAUUUUAFFFFABRRRQAUUUUAFFFFABRRRQAU9iFHmZ9P8A0LHC9WNR/wAFfR37E3wdh+InxCfxFrFulxoHhsiZYJfuz3jf6pfwrzMfjY4GjOvLaK0Xd9Eelg8M8TWjSW7dj0j9nT9iuyuNJs/EnxKtpLme6jSa08PM21IkblWuPc/3a+v9F02z8N2aWuj2NrpNqo+SCyhWJfyVRU7SNLIzM3zMTub3LZ/WjBPevwvGZjiMdUdSpJ69NbLyP1XC4KjhYKMUtOumpP8A2ld/8/U//fxhSf2jd/8APxL1/vM386ho8z3rzlOS2Z2csXpYivrG11JW+22dre/9d7dH/mprktW+DHw+1z/j+8FaDcN/14on/jyqK7IyZorWGJqw+GbX3mU8PRqbwT9bHj+o/sj/AAl1Jm3eEYrf/r1upYqxG/Ye+Ef/AECtTX/c1SWve/lpma7IZpjk7Ks7erMHgMK96a+SR5N4d/ZQ+FHhmaOaHwhbXs6/x6lI91/OvWLS3jsLWK1tYI7Wzh/1cECqiRj2CqFWpMLQPuda5a+Kr1m/aTcl56/cbU8PRpa04peiGk5paX5qBXKjou92JRRRQAUUUUAFFFFABRRRQAUUUUAFFFFABRRRQAUUUUAFFFFABRRRQAUUUUAFFFFABRRRQAUUUUAFFFFABRRRQAUUUUAFFFFABRRRQAUUUUAFFFFABRRRQAUUUUAFFFFABRRRQAUUUUAFFFG/3oAVutIrEtSrwRWP4w8UWvgbwnrfiK+bZZ6XaSXUn975VwAB6lulaUqbqTUVu9vnoZzmqcXJ7JH5/wD7bXjj/hK/jdPpsLq9noNsmnr/ANdT80tfPbKuK0Nc1a717Wr/AFi8ffeX073Uzf7Ttk1Sr+h8Bh1hcNCktkune2p+NYms61WVRu7bG0UUV6BxhRRRQAUUUUAFFFFABRRRQAUUUUAFFFFABRRRRYBEYbWZm+6DX6gfspeA/wDhAfgR4atZE2X2oIdUu/8ArpLyq/8AfNfmp4V0J/FPibQtFj+9qmo21n/33Kqs34LX7DC0jsI0s4V2QW4Ecap/CirhVr824wxVo06Cejbv+SR9zw5QTnKs+m3kxe9BpGbmlNflvQ+86a7iUUUUAFFFFABRRRQGoUUUUAFFFFABRRRQAUUUUAFFFFABRRRQAUUUUAFFFFABRRRQAUUUUAFFFFABRRRQAUUUUAFFFFABRRRQAUUUUAFFFFABRRRQAUUUUAFFFFABRRRQAUUUUAFFFFABRRRQAUUUUAFFFFABRRRQAUUUUAFFFI1BVxDzj6ivlb9vz4lJpPgzSPA9rLtu9YcXl+v8S2sbfKv4yV9V92+hr84f242Y/tF6pkk4tLXHPT5a+s4aw8K2YRcumvzPns8rSp4RpdXY8EaQs1JQ/ehO1ft62Z+VMKKKKBBRRRQAUUUUAFFFFABRRRQAUUUUAFFFFABRRRQB67+yPo41z9o7wRC33bW4kvv+/UTGv09DgV+cX7C//Jw1l/2Cr3/0Fa/R5Pun6Cvxvi2TeNS8kfp3D0UsM35iUUUV8QfThRRRQAUUUUAFFFFABRRRQAUUUUAFFFFABRRRQAUUUUAFFFFABRRRQAUUUUAFFFFABRRRQAUUUUAFFFFABRRRQAUUUUAFFFFABRRRQAUUUUAFFFFABRRRQAUUUUAFFFFABRRRQAUUUUAFFFFABRRRQB//2Q==;" vertex="1" parent="1">
          <mxGeometry x="285.93" y="270" width="74.07" height="40" as="geometry" />
        </mxCell>
        <mxCell id="WMmJRBIvkIGNVEh-zgJP-6" value="" style="shape=image;verticalLabelPosition=bottom;labelBackgroundColor=default;verticalAlign=top;aspect=fixed;imageAspect=0;image=data:image/jpeg,/9j/4AAQSkZJRgABAQAAAQABAAD/2wCEAAkGBxITEhUTEhIVFRUXFRYVFRUYFRUYFRUXFRUYFhUVFRcYHSggGBolHRUVITEhJSkrLi4uFx8zODMsNygtLisBCgoKDg0OGhAQGy0lHyUtLS0tLS0tLS0tLS0tLS0tLS0tLS0tLS0tLS0tLS0tLS0tLS0tLS0tLS0tLS0tLS0tLf/AABEIAKgBLAMBEQACEQEDEQH/xAAcAAAABwEBAAAAAAAAAAAAAAAAAQIDBAUGBwj/xABIEAACAQIDBQQHBQYDBQkBAAABAgADEQQSIQUGMUFREyJhcQcygZGhscEUI1LR8EJicpLC4WOCohVTg7TSJTM0NUNFsrPxF//EABoBAAIDAQEAAAAAAAAAAAAAAAABAgMFBAb/xAA0EQACAQMDAwIFAgUEAwAAAAAAAQIDBBESITEFE0FRYSIycYGxQpEzocHR8BQVI1I04fH/2gAMAwEAAhEDEQA/AOfJtVlp+N7fDjPUKu408mDK0UplTXxWY66zjdbU9zuhS0rYDJcAjX5/rWWOOUmgzhjVcfIfKU1VglAaEqRYxbyyWywRQgSoYoiMQYWTSDIoGSTI4A0UgQQiTwMUTJN5I4CkBhxgCMQcABGAYgIOABxiBAA4xAgAcABGAcBAgAIACAAjAEABAA4gBAAoAC0ABaPAZCxIsijz+Nj9ZKrtTSJQ3kyFOIvJFI6e39fSdEG8FcuRVZwePQfKTqSUuRRWBC0+cgoYWRuXgaMqZNC6dO8nCGojKWBxqdpY4aUQUsjRMqbJgEjkYqT5REIyIw1jQmHAACAAjEGIAHGIMRiDgAIAHGIEADjAOAgQAEYAgAcABAQIACAAgAYEACgMEAFKsaQshkxiDxbhrA8ddeuttf5eMnWaezHTTW6K+pTInFKLR0p5HMPz8j+f0llLyiEwONfd8hCS3BPYBe2gg5Y2QYFKoPHSSST5E20KU2klLSJrITvfSKUs7AlgbZZXKOCaYm0gMWJYiLCIkWMAgIUYxEjZ2Aq16i0aKF6j3CoLXaylja+nAE+yRbUVlklFt4Ql8K4qGkVIqBzTKcw4bKV876RprGRaXnA9tTZlbD1DSr0zTqKAShtcZhccCRwMIyUllBKLjsyKJIiHGIEADjECAF5i90NoUqP2iphKq0gMxYqO6OrLfMo6kgWlarQb0p7ljpSxkpZaVAjAEADgIEADgAIxAgAIAC0ADMACiGKVZJITYZMYkFYQGIxFHhYg6dbcSTz85GrHOMMnCXqNAEaMDb9cJWk1s0T+hO2Xs1qjgLwGpPTz8ZfSpb5XBzXFzGnDMi2xe7JAurXNuBFuUudKPKOGl1OMniSM1WTKfH5TjmlFmvF5QyWlLk2TwLV5KLE0L0PCSyiIlwYnkaEyIwwY0wYcbEFEAoSQjW+ib/zfCfxVP+Xqyiv/AA2W0fmIG0WH+1qov/7hU/5oxr+F9htPuF16aXH+1q2o9Sj/APUsVr/DFVTcjY7q7sYUjC4bE4LBoa1Eu4q4hmx9QlGYVKSoo7Ne6TbMLC/NdeedWWW03/QujFYxgraGz8DhNnU69TBU8S42jVw13NiyipVUF7Cz2VOBFr2PKTcpynhPG2f5CxGK4Lupu7s047F7OXAooGFbEivnY1Ec5Rlpg+oozggA204EGQVSppU9XnA8RzpwVW4+wcP2GDGJweDBxJJL4muTiaytbKcLSVe4NV5jSxOpvJVaktT0t7egowSWMGE25gDhto1aOFDFqWJtQAXtHur3pgKQc5BtoQb25zrhLVTTl6HPJaZ/CdF3GxtWu2KD18RU2o+GqK+GxINPDLZgFORU0OU09LD126kzkrRUcbLTnlcnRFtrfk48BNE4nyHAQICDjAOAgQAEYAgAIAKAjwLIAsWAyGKfWPSLUGYwEkxMkIkRkbENr7B8hKqz3L4LYRTqkcDIRm0NxTNTufjAGZWtraxsOV9PjO6jPKZjdUotxTj4NZiq6BSSQABe8tMKlTnKWEjme0GzOzcizEeRN5xVVlnsaK0wSIk5y4CwQgwYwHFeSTItCst42LOBOWIeQ7SWBBSIwxGhE/Ye1qmEr08RRy9pTJK5hde8rIbjnoxinFSWGSjLS8mg2t6RsbiKZp1Bh7FkclaIVs1OotRe9f8AEov11lKt4L1JusyTjPSltCqrK4wxzqVY9gM1iLHXN0graC9Q7zG8J6SsegpWNAvSQU1qtRU1WQCwRn45eB0tcjW+t5f6aD9Rd5lVjN6cTUoDDsU7MYhsSLLZu1dnY639W9RtPKTVKKefbBF1W1gmDfzGfa6mMvT7apR7Bu53cnd4LfQ90ayPYhp0j7rzkc2b6QMbRpUaS9i3YACjUeirVUQW+7VzwUgZTztzjdvBtv1Dvso8dtSrVxDYlmy1WqdrmXu2e9wV6WIEtjBKOnwVubbyaXFek7aT02Q1KallyNWSkq1mFrauNB5gC3K0qVrTTyTdeWDGgToKWw4CDjEHABa0yeUkkJySCtEALQAMLHgMhhI8CyK0gIk4KqqtciTg0mU1YylHCFbRYM114Rz3YqCcY4ZCYyt7HQhsyBIMCGAImIFyfO3uldVZkzojsgkpX+sjGGQchRq20H68TJa8bIWnPI5icW7WBYkWGhJI4R1KrIQpRXCI61JWpstcRRAMbSYgssjpwPImIBQjQg7wDA9RGYgS6lHVLBXL4VksxQW3ATR7ccYwcbqSyV+LpAHScNeCi9jqpy1IYlBYHGIEADgAYkhBwEAQAOMA4CDjAEBCrRiDAjwAoLGkJsssIy5eIl8WsHHVUmyHiSMxtwlcuTognjcZzSOSeA7xAAmAYEwGOIsaRBskMb3Esb8FaWNyI4lTLkxNohhGIY0q3JPidYsapNlj2QjEVBwHD5+JkKk/CJQj5ZHlPksHKv0HyEnMjEalZMXeSEKVpJSItCgAZLZiCKyLiPIYWNRFkdomxvLKb0vJCSyi1woap6o8yeHvmlTn3PlRx1EobyZJ/wBkqTd2J8BoPzk3Za3mT/Yq/wBZpWIodOy6On3Y0/efXz1klY0V4/mVu8qvz/ITW2VSbguXS3dJ18TmvE7Cn4ySV7U84Ilfd2rlL01Z0HE5Tp7eE4ato4vEWn7eTqp3SkstNfgqWUg2IIPQ8ZytNPDOnOeARgCAg4wDgItNmbBrVtVQhRqTlJ062HL3S+FByw20l7lFS4jDKW79i2w2waS+td/M2HuWx+M0I2FPG7yZ0uoVH8qSHxsihr92Nf3n08RrLHZUn4/mVq+rLz/Ih4jd9f2HI8DqPhqPjKZ2H/V/uXQ6g/1r9inxeCeme+NORGoPtnFOlKDxJHfTqwqLMWMXlZMAMAwKGslyLgLLFgeQzAArQAkU8KSLyahkqlVSeAivKJhkFTQxPka3Cdb6/q8H6gmMOJEsQiIkMYiqOC8Pn4yqpPwi6EfLIxlLLQLBAx2oPp8pbNEExq0qwSDEEAqNCFASaQham0mngjjIq948pixgs9mbLzd5/V5Dm35CddvaOe8uDlr3KhtHkvFUAWAsBwE1oxUVhGXKTk8sOSIggBN2Jge3r06X42APlz+EouavapSn6FtCn3Kij6nWsft/DYeoMEEUgAKy6cCNVt5fOeGlWk5687nrI0o6dPg5FvZsBadZqZ1X1qTjiUbVT+Y63nrqLp3lFT8/1POVNdrVcPBjcXhWpmzew8jOGrSlTeJHbTqRqLKGBKyYoCMDS7G2JazVBdz6qcbdLjmfCadvaKK11DJubxt6Kf7/ANjsdDHU9m0aVA5O2cZ3ueLtwTTjYaezxnl7+6des5Ljx9D0FjaqjSUXz5M7vvhqZaliaS5Vrrcr0ccfbr8Jv9EuXUpuEvH4MTrFsqdRTXn8mYm2Y4IAJdAQQQCDxB4RSipLDJRk4vKM5tbZOTvpqnMc1/MTJuLZ0948GvbXSqfDLn8lXOU7AxGIdHxkiA2RESDUQSEyUmJsLSzXgqdLLyKp4gE6j5SOrInDC2HK6gnlwHhy90bw2Qg2JQDgQRfx58jFtwSeeUR3QDr7v7yOEWJsT2Q/EPj+UML1JamVjhb8T7v7zmko55OxZwJ7vj8IlpHuO4RkDqWBIuLjwvrJQcMkKik4vHJe7xV8O6p2drjiQtrC2gPD+0vkk0ZtjTrwlLucGcK+M5tKNXIoU41TbE5ElsLYXvrLHBJFSq5eCKxlbZagpAZabGwGc5mHdH+o9PKdtpb9yWXwjkuq/bWFyzRTbSwZDeQRiH8FgqlZwlJGdzwVQSfM9B4yupVhTjqm8InCnKbxFZNRQ9G2PYXIpJ4NU1/0gj4zOl1i3T2y/sdsem1mvBZbrbp4vC4ym9aldL2zqQygnrbUeZE5b2/o16DUHv6MutbSrSrJyWwe8e7mFq4yvVqACscpVxmDJYWVsy89PlPNM30iBtzBtVwVNmsa1JSxtbvU82Wra3Rij25dq3Sa/Rbnt1XSfEuPqZnVaGumqi5XJiMRRDqVbgfh4iepq0o1I4Zg06jhLKM3icKyNlIv0tz6WmHUpSpy0s14VIzjqRodi7IyWeoO/wAh+H+/ymna2mn458mVd3mr4IcevqdA3A2b2mI7Vh3KNm83OiD5t/lnP1i57dHQuZfjyT6Vb9yrqfEfyRdubLo1mqYvFgPWepampY5aKr6iCwt4liOJ4iePyeswbfdDAUsRhqfbU1cKCyhhcDMTbTyEut61SlnQ2voU16UKj+NZLjE7qYJxY4amPFRkPvW06oX9zF5U399zllY28lhwRjN4/R+1MGphSaijU0zbOP4SPW8uPnNm06ypPTW29/H3Mm66S4rVS39vJhiJvJ53MVrARg0msME8bozG2Nn9m119RuHgen5THuKHbltwbdtX7sd+UQQJQdAAYAOqL+cklkg3gS+mkHsNbjciSF0xAjIdxB4eQ+QjkQghqnWIkcsm4JkqowYXI14G3Xr+uhkuSqKcXgaFIfi94P0vDST1P0KJpwPk0kEDIgHJLkQ/mOnlL8vKIYAwHGEkuQQjNIamPAvtzwvDuMjoXIA4PERqWQwP4fD52CrzP6JlkIamkiEp6Vlmpo0gqhV4AfozepU1TiooxKlRzk5MXLCBabubCq4ysKVPTm7kd1F5sep6DmfaRy3d1C3p6pfZepfb0JVpaYncdg7Do4SmKdFbfiY+u5/Ex5+XAcp5C4uKleeqb/8AR6OjRhSjpiWcoLhFUaGAHnz01UMRSxwekXK1FDKouwN/3eB1zStc7lj42J2xd4XFLA9qL5sS9KuG4hHpWYcANVzaeEE3GSkvG4NaouL8lTtDAtSrPRNyyOU87GwI630PtnvqVaM6SqZ2ayeQnSlGo4ecmh2NuPVqKKlQrT0JS6lreLEepMav1yhCotMdWPP9jSp9IrTpvVLTnx/ckpubiS+UZSuTOHB7rdEH71+thzvOn/e7ftqe+c4x5OJ9Irqbh7ZyWuy8S2FpYFbALXrYlqx6ZKFU0yDwItTvMTq1bu3DxwkjY6XS7dBZ5bOQjF4nE40sKl1L6BKitxuFzZePHmJmS4NOPJ6V3XwYpUVUcAFUeSC3zvJpbFbeWXEYgQA5/wCkTdcEHFUVsRrWUcx/vB4jn4a8jfe6TfuLVGo9vH9jE6nZZXeh9/7nOZ6Q8+NYmgHUqeB+B5GV1aaqRcWWUqjpyUkZCtTKsVPEGxmK008M3otSWUJAiAdBtJ8EeRRGbz+cT3FwNqmusiSb2JdSmoHSBRGUmxqv9B8o2WRI4TpEo5LMkmgVGjHjoQPneTSS5K55e6CdyDa1vDT8onPAJJlHWXpOKcd8o0YsbAlaRIWBLEkIXUaSk+CKQQMingGBhCS9AQmQGKUSaQmXu72H0NQ8+6vkOJ9+nsM0+n08tzf0RnX1TGIL7lzNUzQ0QkgAEkkAAcSToAPGKTUVljSbeEd53M3fXB4dUsO0azVW6t+EH8K8B7Tzni726dxVcvHj6HprWgqNNLz5L6ch0ggAIAc89Lu7T4rBsaV+1pAsljYsp9ZP7SDW+Safg4Bu5Xq60aaO9Rai1URQzEsgKsoUC9yrH3QkhwZ3zZuBU0Uq1aHZ4lkGZnX7wWXING9U5VFx59Zy3N7XdPs6npXg6KFrSU+6lv6kTdnD5alTBDGsVC5hScA1VzAWdHuARc3KlSBccOddPdbsvqeqRbbJxKYVxhKlUMWBK5rA2H7p5HW3LSWa1DYpdNy3GfSFsatWw61sLq9FKuWkOeekaV1tzCs1h+8Zep6viObSo/Cc79C25b1Kv2mqpUKbKCLWI5kHn/aT5YvlX1PQdNAoAHACwkyAqAAgATC4seEAaycV3w2N9lxLIo+7bv0/4T+z7DceVus9n066/wBRRTfK2Z5G/t+zVaXD3RSTvOIo94cLqKg591vofmPYJm3lPElJeTUsquYuD8FSBach2ZyJJgMNDATHytxccef5x8kOBsKTFgllDtZQLX6DQfnJNJckItsjVH5DQSLl6FqQ2GlZPBY0SjAFiQeGg4gcPy9ke3k5pak9ihAFrGVJLGGaQyxlMmTQFiTAdHKW7bEAVnBkZteAgmhCtIpkmhWWS0iyENdB5CRYGzw1DIir0AH5n3z0dCn26aiYFaprm5DlpcVmz9FuxxWxRqsLrQAb/iNcJ7rMfMCZHWLjt0dC5l+DR6bS11NT4X5OyTyxvggAIACADdZARYwAzewNzMPha2Ir01s9ci/LKo5L0ubk+zpK3DYmpbje2MHUAPZ6OdEJDOFLXGZwovpxtoPHjOCVJxecHbCqmsGD2zso1cqYTD4p6yA5azI1K9Q+viHdrM7W0UaAdLWkowk/BPuJcsudgY7EVB9k2ijpWUWTECyuRyudQ3jpY9OclpbeGityS+KL+xrMBs2vh3BpslSmbZk7ykfvLmJHmosOkvhTlA55zjMucHhqdMNkUKGYsbcLn1vjc+0y5JLgpbbJQkhAgAIACAGQ9JezO0wvagd6ic3jkbRx/wDE/wCWavR6/br6XxLb7+DL6rQ10dS5j+DlE9aeYGsVSzIy9Rp5jUSqtDVBotoz0zTMwcp8JkcmxugDDE8NYYDuY5A2HI5QwwVRMCC3E+6PGAbyPN3h3RbqB8/KDltsQWz3GMUpsvl9TIMnBp5IxEiXIRaIY/SvaBXLkqgw8pQmsndgFSnzEc6ed0CkNASlJksjj8v1zlsuCKG5USDAgkA4Glil4I4JuxqGasvQd4/5eHxtLranrqxRTcT0UpM1lp6EwMgtAMnaPRns3ssErEd6qTUPkdE/0gH2zyHVa3cuGvC2PSdPp6KKfruayZx3AgAIACACKi8+YiA5Vvr6WlwlVadFe2YE5xlZFW3IOwGc8NAtv3otMuSScS43X33O0WZcKrIUVGqCovqZyNAQbNdcxBvpYHUHSv4sk/hwbqglgBe55nrLUsFbKTbONp9t9nqAKWpGpTc21KHvL52IPvkWSic59JHpExeBYYejSUB6eZaxNxqbdwc7WvcnnElkb2JHom2htDECliK1E1qTF07UVyMrKQCzUm0I4+qcunAWj0LOSOt4wdfkyIIACAAgAzjMOKlN6bcHVlPkwsfnJQm4SUl4ITgpxcX5OBVqRRmRuKsVPmpsflPfQmpxUl53PEzi4ycX4ESREymOo5argdbjyOo+cxakdM2jdpz1QTF4eplNz7pHBCcdSF4jGX4aD9cY9TXBGFHHJH7bwB9n5SLZbpJez6yZhcW8QfoRrFkprRlp2LveDD4cIpUgHllN7jU9evORM+yqV3NqRm17Px+EexrfGILU+jfzD8oth4mSqDU7eo384/6YimSlnkzVx0nNlM18C0I4SyLT2ItMF4ZQC2AIk2k0RTeRAoyCpZJOYlxaQktI08iJAkX26tO7VG6BR/MSf6RNHpsczb9EZ3UZYpperNFabJjCqdIsQo4kgDzJsIpS0xbfglFamkeicHhxTppTXgiqg8lAA+U8FOTlJyfk9jCOmKivA9IkgQAEABACFtjaSYei9Z+CjhzYnRVHiTpLaFGVaoqceWVV60aUHOXg4dv1urjMVhn2hURTYh8puHCMQM4sdKai2h5C/LXu6lOjHTSpfpWGcnTY1XqqVF82MG79F+C+z4cUnKl2ZdQNezVFCKTzt3vZMhSyaklgutsb84PDVxh3ctUILELY5VHEm5F7amwvwbobTyQwZ3f3b2AxDnC9oRiaVPtkqi2RCxUdm2tzmutwAbaHiLRPca2KHfvdf7bgqOJpk9tSRUAB7veYXLeR4/2kE8E8ZLz0UbQ7Avs+o7MVd8hY/toT2tMDkCQXA6EzvdOE6CqU+VtJfhnE5zhWcJ8PdP8AodNnKdAIACAAgAIAcU32w3Z46uLaFg4/zqGPxJns+mT12sPbb9jyPUIabiX7lJO84ig28LVARzX5Ej8pl3axUNWzeaZV5pynZgK8AE3iGOUn1gKS2HsSxsvl/UY2V00ssh3kS4dp0SxAAvfhERlJJFtT7JBlYZzzIaw8h184HHLXJ5WxjxOE3BQMmmJhtJPfcSFXjyIMVLSSnpE45EO15XKWSSWAASIGo3UX7tz+/b3Kv5zY6YvhkzI6m/iii7tNQzMlputQz4zDr/iof5TmPynJfT02837fk6LSOqvFe53meJPXAgAIACAAgBzfeLaIxuPo4VTeilQBujsLmofIKCo9s9Da0Ha2k68vma29l4/uYNzWVzcxor5Uza4mmtU1aDi6PSKEdVYFWA6aNPNZzJpnocYimiq3Z2S+HRqLalCUpVT+2lrodOBA0PiOkUI4HOWSs9Iex8LTofa2p0xiKRQirkQVKlgFKu1rm6gjjpJsiuTmno29HhrocYcWaNZcrUAreqpXR6jjXUHgLWtx5AyHBaUquJWnWwpqqaNNXsyG61MwAC5+Yza+3WUT5L44wQaIcVq702IdHSqpHENkVr++87un1lCuoy+WWz+5yXtJzouS5jujtW6+2lxeHWqLBvVqL+Fx6w8uY8CJZd27t6rg/t9Cq2rqtTUl9y2nMXggAIACAHJ/ShTtjAfxUUPtDOPoJ6roks27Xo3/AEPM9YWK6fsZGbBlFPvAbZD/ABD5TOvdpI0bHeLKcIDwnHj0O7OBsraRJZEtAkglMQMkYngvl/UY34K4csbooWNrXiJSeEWZsi2Hrcz/AEjw6nn5cQ5MubyxeBw4dSfG3wEEshUqaHgx84TbBeIBaGWwIsU3CSksISGzKmSDAgAqPAjW7rL9x/nb5LNrpq/439TE6m/+RfQuMs0TNyX+4Sf9oYfzf4UnMz+qf+LP7flHd07/AMmP+eDtc8cerBAAQAEAMrv9vD9mo9nTP3tQEC3FF4M/geQ8deU0+mWffqapfKuff2M3qV32aemPzMxPo5ohsch/CtRh/KV/qm31iWLVr1aMjpUc3Cfpk6pVAQ5zxIt5DifPhPHPCeT1ay9hNXEW7xGZLcQLlepI6QyGDnnpZ2hQNAUMRiTh/wD1B90zdqADbsn4eY1I9xgHBzTZu9eGSiKdN6yhkWlUp5MzMicOzIsLmw9Y8yI8DybPdeizhVamUUstQqeIViRTBPW1j52lFR74LoLbJZJg0ZsVUpjR2ZUPAEKgS48yDJUmo1ov3QqibpSXsyp3C3g+y4gBzajUstTop/Zf2E6+BM9r1O079LMfmXH9jyNjc9mph8Pk7YDPInpg4ACAAgBzH0rr9/RP+ER7mP5z0vQn/wAc17nnutL44v2MPN0xSm3l9VPM/ITPvv0ml0/9X2KJWmeaDQ4tXrr+uslki4+gs0wRp7uf94YzwLU1yJpYVibAG8iEqkUssn4rZzqEzKRpwsfxGDZz07iMm8MYdxTFh63Anp4D6/q4Wpa93wRTWMRboRcbNqBU8yT9PpJI5aqzIxpnAbQAIJAKEmhEs0xkvzna6cO3nyUanqwRtJx7FwLxZAK8WQwa/dFr0W8KhH+lT9ZtdMeYSXuYnVFipF+39S6tNIy8l3uVUC47Dk/jK/zqyD4tODqUdVrNf5ydnT5YuIHbJ4w9eCAAgBE2rtBKFJqtQ2VRfxJ5KPEnSW0aMqs1CPLK61WNKDnLhHENsbSfEVnrVOLHQclA9VR4AfnPbW1vGhTUI/8A08dcV5VqjnIvPRu4GOXXijgeOl7fD4Th6ys2z+qOzpLSuF9GdN2rge2UpmKkg2IPDS1546cdR62EtJlsJS2nhyUNNcRTHB0dVe38DkD4yha4+C59uW+TOb7bcw9XDHCYsVcMynuPUwxqIOQB42I5Mp9snGpnYi6fkw+767JwjBquLOKINxTo4Zhm5WqVXFwvULrLNRFR3wbNt6ftLrSwlF6dMtmqV3GWpUPRF1yLyBOoAAAE5pTWTojTaW5cbcdcNhTl0NsiDxbT4C59k7+m23fuYxfHL+xwX1ftUJP7L7nOBPfnjDrPo03j7an9mqH7ymO4TxemNB7V0HlbxnlerWfan3I/K/5P/wBnoOm3Xcj25cr8G4mQagIACAHLvSpVviaa9KIP8zt/0z03Q44pSfv/AEPN9ZlmrFexipuGOUu83BB4t8hM6+fymn0/9T+hQzgNIKIB2k0ZGSNzujSBQseN8o6gADn7YHm+qTakorg0GJoBlKngRb/8gzKpVJQkmjmmMwLBjYX8rH5RHsaVZNIruzN4jp1IsGLKqAfhJ/1tJHPs2zMzhwawckIOHABZotTHgAhkQIAGIAabcyt/3ifwsPiG/pmp0yfxSiZPVYZjGX2NNNkxBdCqUZXX1lYMPNTcfESE4KcXF+diUJOMlJeDu2ydoJXopVQ6MoNuh/aU+INx7J4WtSlSqOEuUe1o1Y1YKcfJMlRaIrVVRSzEKoBJJNgAOJJjScnhcilJRWXwcf3z3lOLqZUuKKE5BwLHhnYfIch5meu6bYK3jql8z59vY8rf3v8AqJYj8q/zJnJpmeWe6+JVMbhi7Zb1kQeLNoFHmTacPUpJW00/KO3p0W7iLXg6RvDtfEYarnWj21M2DKps6jql9CeOk8HKTjI9rGKlEqKPpJwaFVrMaRKF2zo6gOWstPNa2gEFUG6Q7treXZeJopnxOGZSwFmqJobHQ3OkjPEvA4ZgZOrtDYKE/e0bjXuBnPsyg3Mh2n7lndG235wdID7Ph3c/sl8tMHyGrn+WJQURuTkZ99tVsY9V6ptlAyINFQBhew6nrx0E1+jT0XcffKMvqsNVtL2wNz3B5EkYDGPRqLVpnK6G6n6HqCLgjoZXVpRqwcJcMlTqSpyUo8o7juxt+njKIqLow0qJzRvqDyP1vPF3drK3qaZceH6nqbW5jXhqXPlFxOY6QibcYAcR3r2mMRiqlRTdb5U/hXQH26n2z2vT6Do0IxfPL+546+rd6tKS44RUztOQotv1O+q8gvxJ/sJlXrzPHoatlHFPPqVhpAjT3TkOtSa5GGUxFiaHKdO2p0/XKPHqRlLPBfbF2waV9O7bUcyeWvX+8ZmXdmq31LbH7x3pEoLE21vqASw093xiOKj01RqfFuZiriA/QN7gfyPw8ojYjTcPoMnEODZtfBgD84sss0Ra2LGtiFOX7tTZV/HzAbk3jHg5lCW+/kxs4zdBHwIKRGFEAcYAgAcYifsTF9lWVj6p7reTc/YbH2S+2q9uopFFzS7tJx/b6m+npVueWwFGBc7u7yVsIT2ZDI2rU2vlJ6j8LePvvacV5YU7lfFs/U67W9qW7+HdehrP/wCmi3/hTm6dqLe/L9Jk/wCxSz8+30NT/eo4+Tf6mW3h3qr4vuuQlO9xTW9jbgWPFj8PCalp06lb7reXq/6GbdX9Svs9l6FHO84gQbSWWNJt4RT7Fxxq7VwYQ3VcVRC9D94pZvh7gJ5y/uO7l+Etj0ljb9lJPl8npbEAcbX5n3foe2edkbETMbc3Sw+KzCqCoFrZcovcXLNp1JHksolBF0ajRz7bPoupqT9mdg4FyamTJ5XA0PPh9JV3Gnhl+lNZOf7X2O9F8tUqutu5qD46SyM88EZQwTMFhKVMLUFqoJ7zIe+t+BsYm2wSwTaLrT7aowYLpxAvZmC348LmdvTZYuYN+Dkvo6qE16jwM9/FprKPFSTTww4yJO2TtSrh6gqUXKsND0Yc1YcxKK9vTrw0zRZSrTpS1QZu8L6T+795hrt1WpYH2Eae8zFn0J5+Ge3ujWj1hY+KO5Ubwb8V8ShpqopUzowBJZh0LWGngBOy06TToy1yep/yOK66nUrR0pYRl5rGWAmJtJZY0m3hGTxOI7V2PInTyHD4ATDnPXJs3ow7cUvQWtDSR0kHPcSKyjjqevT84ZSHpfgbdL6g3/XOLncmngOpoMvv84PbYS33H6Jutv3D8GLfSMrksSz7lc7ays6ktiXhcQD3X1HI8x5dR4fKMpqQa3RpaWFC/slhpYgX9VQvsN1OkeozXUz7f5k53OTJ6QIyLGFEAcABGAIAHGIOAGv3b2qHUU3PfUWH7yjh7R/frNqwulJduXPgw+oWji+5Hh8+xeTTMsEABAAQAJmAFybAak8hBtJZY0m3hGW21tsvenT0TgW5t1A6D5zFu7zufBHj8m5aWap/HPn8D/o5S+08GP8AHU/y3b6TMrfw2adL5j0ptHHmmbKMzNwuQtNAOLux4D38phzqYeDQhDKyUiYxytSo1btKSEsexpNTzldbdqzlSgtbunUg3PEHn1bN+Do0rKXki7PDVgtWlRamKoNRgwsXGi5mzm5a1jfLY2GtpDRJ74LHJLbJU7Z2dSqLnp0hUYEA1DZQCbDULr+0DbxkM4JrfkwG2d3uwOHVXVu0ueFtRa514C5tx5y5SyVtEfeXPTotTqaZigXTUgG7C/sE0OnRzVz6I472WKeCn2PtLL3HPd/ZP4fA+Hy+XqbW57b0y4/B526tta1R5/JfzWTzuZLWBQjIixAiLWMixUCJT7fx4ANJT3j63gOnmflM+8rrGiP3NKyt9+5L7FHSNtZnrY0ZbjtTF9BG5kFSIhMgXEnDPl73Th5yUdtyqcdWwoVQx10PX8xDKfItLitiWaeXIeXXlbMdPdJYxgpUs5KvELYkSpo64PKBhxrBBPgttp1u/bp9SW/qknycdKHw5MpecWTZCiAEADgAIACMAxAAxGIUjEG4NiNQRxHlGJmi2dvNYBawJ/fXj/mX6j3TTodRlHapv7mXX6bGTzTePbwXdDalB/Vqp5E5T7msZoQvKMv1fuZ07KvH9P7bjwxNP/eJ/Mv5yzv0v+y/cq7FX/q/2IeM23Rp6Zs56Lr7zwlFS+pQ4efodFOwrT5WPqZvae16lbQ91Pwj+o85lV7qdbnZehr29pCjxu/Ur5znSab0aOo2phCxAAqEkk2A+7fiZVW/hsnS+Y9HYraNEkgPTOlyc6exRczEnFvbBoQeN8me2ky1D62ECU7N94e1Fwb8MygkW4cOE53CedlwdClHG75K7GYnEsjCntBHdiiv6lNFuRmyu178SBl04E+MXGo/UsTprlEDHbWr0sJUVVU1alYISKlIJSW60lyWOZr5b5iBYvfgIaGo4wxZTlnJE28KVStQxRqKyLQYlSVuHRlJvY6khr/8ONRl6MNS9TL7/YxHoqLgulawsQe6yE8vID2TT6bGSm8rwcN81oX1MLNkyyx2ftVqfdPeXpzHkfpOmjczpbco5q1tCpvwy7w+06TcHAPRtD8dPjNKF5Tl7GdOzqx8ZJ1xYHkdQeR8R1lyqwfDRzulNcp/sIrY2mmjuARxF+97hrIyuaS/UONrVl+krMbty4tSBH7x+g+pnHVvHJYgdlGxUXmpv7FGzc+J6zhNAQWkWyWAGAB0xBCY7VPIcpKXoQihpBrIom+CwNcgLbp8LmWN4SOZQWWFilVj0JsfA3Fz5c4SSY6bcUW2xd32YhiNLg9b89JGMGzhu+oRh8Ie1NmP2rWW9yTwvxPCDTTC3uoumtz/2Q==;" vertex="1" parent="1">
          <mxGeometry x="500" y="230" width="71.43" height="40" as="geometry" />
        </mxCell>
      </root>
    </mxGraphModel>
  </diagram>
</mxfile>
